<!--?xml version="1.0" standalone="no"?-->
              <svg id="sw-js-blob-svg" viewBox="0 0 100 100" xmlns="http://www.w3.org/2000/svg" version="1.1">
                    <defs> 
                        <linearGradient id="sw-gradient" x1="0" x2="1" y1="1" y2="0">
                            <stop id="stop1" stop-color="rgba(247, 175, 36, 1)" offset="0%"></stop>
                            <stop id="stop2" stop-color="rgba(49, 37, 222, 0.94)" offset="100%"></stop>
                        </linearGradient>
                    </defs>
                <path fill="url(#sw-gradient)" d="M17.2,-31.4C21.7,-27.2,24.4,-21.4,27,-15.9C29.7,-10.4,32.3,-5.2,31.3,-0.6C30.3,4.1,25.8,8.2,22.6,12.6C19.3,17.1,17.3,21.8,13.8,21.9C10.2,21.9,5.1,17.3,-1.2,19.4C-7.6,21.5,-15.1,30.4,-18.4,30.2C-21.8,30,-20.8,20.8,-22.5,14.2C-24.1,7.6,-28.3,3.8,-28.5,-0.1C-28.7,-4,-24.8,-8.1,-22.5,-13.5C-20.3,-18.9,-19.5,-25.8,-16.1,-30.6C-12.6,-35.3,-6.3,-38.1,0,-38.1C6.4,-38.2,12.7,-35.6,17.2,-31.4Z" width="100%" height="100%" transform="translate(50 50)" stroke-width="0" style="transition: all 0.3s ease 0s;" stroke="url(#sw-gradient)"></path>
              </svg>