<?xml version="1.0" standalone="no"?>
<!DOCTYPE svg PUBLIC "-//W3C//DTD SVG 20010904//EN"
 "http://www.w3.org/TR/2001/REC-SVG-20010904/DTD/svg10.dtd">
<svg version="1.0" xmlns="http://www.w3.org/2000/svg"
 role="img" viewBox="0 0 960.000000 1280.000000"
 preserveAspectRatio="xMidYMid meet">

<g transform="translate(0.000000,1280.000000) scale(0.100000,-0.100000)"
 stroke="none">
<path  fill="currentColor" d="M6760 8911 c-52 -16 -115 -55 -151 -92 -65 -68 -98 -142 -145 -328
-25 -96 -56 -213 -70 -260 -15 -47 -40 -133 -56 -191 -40 -140 -122 -385 -165
-490 -19 -47 -79 -176 -135 -288 -96 -196 -139 -297 -214 -502 -19 -52 -38
-104 -43 -115 -18 -43 -102 -263 -119 -315 -44 -129 -91 -208 -176 -298 -37
-39 -54 -51 -70 -47 -12 3 -15 2 -8 -1 10 -5 10 -9 1 -20 -16 -19 -27 -18 -25
4 1 23 25 40 47 35 14 -4 17 2 16 30 0 20 -5 34 -9 31 -4 -3 -8 -1 -8 5 0 5 5
13 10 16 6 3 10 1 10 -4 0 -18 20 -12 26 7 3 9 10 26 16 38 5 11 8 24 7 30 -1
5 1 17 6 28 5 11 3 26 -4 39 -12 19 -11 20 21 14 18 -3 27 -3 20 0 -9 4 -10 8
-2 18 8 9 8 15 0 20 -17 10 -11 25 10 25 11 0 20 -4 20 -10 0 -5 7 -10 15 -10
20 0 19 16 -2 32 -16 12 -18 20 -14 52 0 5 8 3 16 -4 12 -10 15 -9 15 8 0 11
-6 23 -12 25 -7 3 3 5 22 4 34 -2 40 2 40 24 0 8 -5 7 -16 -2 -14 -11 -18 -10
-30 6 -19 26 -18 32 9 31 31 -1 34 33 5 63 l-22 24 37 -6 c38 -6 60 8 36 24
-11 7 -10 9 4 9 14 0 17 5 11 23 -3 12 -11 24 -15 25 -17 7 -9 32 10 32 22 0
36 16 23 24 -12 7 -8 71 4 71 5 0 8 -3 6 -7 -4 -15 19 -8 25 8 3 8 12 13 19
10 8 -3 11 0 8 9 -3 8 -13 11 -21 8 -13 -5 -15 -2 -10 16 3 14 -2 36 -15 57
-21 36 -16 44 13 18 14 -12 24 -14 46 -7 27 10 27 10 6 17 -12 4 -25 15 -28
25 -7 22 10 71 25 71 6 0 8 -4 5 -10 -3 -5 3 -10 14 -10 26 0 18 26 -11 33
-11 3 -17 10 -13 17 5 8 11 8 21 -1 12 -10 14 -4 12 35 0 26 -5 49 -10 52 -17
10 -7 22 17 20 27 -1 33 -11 13 -19 -8 -3 -6 -6 5 -6 23 -1 21 18 -5 46 l-22
23 33 30 c19 18 26 30 18 30 -8 0 -17 6 -20 14 -4 10 1 12 16 9 22 -5 22 -5 2
10 -17 14 -17 16 -4 17 19 0 35 30 17 30 -6 0 -3 9 6 19 19 21 15 51 -9 71 -8
6 -11 18 -8 27 3 8 0 19 -8 24 -10 6 -6 9 14 9 25 0 27 2 17 21 -9 16 -17 19
-42 14 -17 -4 -60 -7 -94 -7 -35 0 -64 -4 -64 -9 0 -5 7 -9 17 -9 14 0 14 -2
-2 -20 -10 -11 -13 -20 -7 -20 7 0 12 -4 12 -10 0 -18 -65 3 -87 29 -15 16
-21 20 -17 8 3 -9 1 -24 -5 -31 -8 -10 -9 -16 -1 -21 5 -3 10 -1 10 5 0 6 5 8
11 4 7 -4 7 -10 1 -16 -6 -6 -8 -18 -5 -27 3 -9 1 -12 -4 -6 -4 6 -30 11 -56
12 l-49 2 23 -20 c12 -10 30 -19 40 -19 34 0 29 -18 -6 -22 -19 -2 -36 0 -37
4 -2 4 -21 3 -43 -4 -37 -11 -38 -12 -15 -17 14 -3 32 -10 41 -16 21 -13 43
-55 33 -63 -4 -4 -9 -1 -11 6 -6 14 -49 16 -58 2 -4 -6 5 -10 20 -10 23 0 24
-2 15 -20 -9 -17 -14 -18 -33 -7 -12 6 -25 17 -29 22 -11 14 -10 -3 1 -43 l10
-32 -57 0 c-49 0 -53 -2 -38 -13 10 -7 16 -22 14 -33 -3 -18 -4 -18 -23 4 -11
12 -29 22 -41 22 -21 0 -21 -2 8 -30 20 -20 40 -30 61 -31 18 0 25 -3 17 -6
-34 -11 -79 -34 -84 -42 -3 -5 17 -11 44 -15 28 -4 50 -12 50 -18 0 -7 -13 -8
-37 -4 -21 3 -48 6 -60 6 -17 0 -23 6 -23 22 0 16 -3 19 -11 11 -14 -14 5 -53
26 -53 7 0 17 -5 20 -11 5 -7 -10 -8 -45 -4 -34 4 -50 2 -45 -5 3 -5 17 -10
31 -10 16 0 24 -6 24 -17 0 -13 -3 -14 -11 -6 -9 9 -18 8 -35 -4 -36 -23 -29
-36 16 -31 40 4 53 -5 24 -16 -9 -3 -28 -6 -44 -6 -19 0 -30 -6 -34 -17 -2
-10 -2 -1 1 20 3 24 1 37 -6 37 -7 0 -12 -29 -13 -77 l-2 -78 -3 70 c-2 39 -7
79 -12 90 -5 11 -23 63 -39 115 -56 178 -101 264 -182 353 -83 91 -176 129
-314 128 -202 -1 -288 -41 -405 -187 -64 -79 -91 -180 -91 -336 0 -112 -1
-113 -17 -79 -24 49 -95 116 -150 144 -103 52 -169 61 -325 47 -175 -17 -255
-70 -345 -228 -44 -78 -60 -130 -74 -244 -10 -76 -15 -91 -33 -98 -17 -7 -18
-9 -3 -9 12 -1 17 -9 17 -32 0 -29 -1 -30 -22 -15 -28 20 -42 20 -34 1 7 -20
-3 -45 -19 -45 -6 0 -20 9 -30 20 -23 26 -57 27 -48 3 6 -16 3 -15 -16 2 -13
11 -26 19 -30 19 -3 -1 -12 1 -20 4 -8 3 -16 1 -18 -5 -2 -6 -27 -1 -64 14
-33 13 -66 22 -72 20 -7 -3 3 -11 21 -18 17 -8 32 -17 32 -23 0 -8 -23 -6 -94
10 -25 6 -28 5 -21 -15 5 -15 2 -21 -10 -21 -9 0 -13 -5 -9 -11 4 -8 9 -8 17
0 6 6 22 11 37 11 l25 0 -29 -15 c-15 -8 -35 -15 -42 -15 -8 0 -14 -7 -14 -15
0 -8 7 -15 15 -15 8 0 15 5 15 10 0 6 13 10 29 10 32 0 55 -20 24 -20 -10 -1
-29 -7 -43 -15 -22 -12 -23 -14 -7 -21 16 -6 16 -8 2 -24 -13 -15 -13 -19 -2
-29 8 -6 23 -9 33 -5 16 5 16 4 4 -5 -13 -9 -13 -11 -1 -11 11 0 9 -4 -5 -15
-12 -9 -31 -12 -51 -9 -28 5 -33 3 -33 -14 0 -14 -9 -22 -32 -28 l-33 -8 33
-3 c17 -3 32 -9 32 -14 0 -6 -4 -8 -9 -4 -6 3 -29 2 -53 -2 l-43 -6 30 -14
c17 -7 45 -10 63 -7 24 4 32 1 32 -10 0 -8 6 -16 13 -19 6 -2 3 -2 -8 0 -11 3
-34 7 -51 10 -30 5 -31 4 -26 -29 3 -18 9 -36 15 -39 14 -9 -1 -29 -21 -28
-11 0 -12 3 -4 6 19 8 14 23 -9 23 -15 0 -19 -5 -15 -17 5 -15 -2 -18 -41 -21
-26 -1 -52 -7 -57 -12 -6 -6 -23 -10 -38 -10 -34 0 -37 -17 -4 -29 34 -14 42
-41 11 -41 -18 0 -34 14 -65 59 -22 33 -40 64 -40 70 0 5 -10 22 -22 38 -13
15 -32 44 -42 63 -11 19 -22 37 -25 40 -15 13 -132 242 -161 315 -13 33 -27
65 -31 70 -4 6 -19 44 -33 85 -23 71 -50 137 -230 568 -93 223 -104 245 -156
310 -106 135 -246 173 -389 107 -57 -27 -125 -92 -146 -141 -20 -49 -28 -126
-15 -159 28 -72 104 -381 140 -570 9 -44 35 -121 61 -180 5 -11 14 -33 20 -50
6 -16 24 -66 40 -109 20 -52 25 -75 15 -67 -8 7 -20 29 -26 49 -7 20 -18 51
-26 69 -8 17 -14 38 -14 47 0 9 -7 19 -15 22 -8 4 -15 17 -15 30 0 37 -31 108
-41 93 -6 -11 -12 -11 -32 0 -15 8 -30 10 -39 5 -7 -5 -31 -9 -52 -9 -22 0
-41 -5 -43 -12 -3 -9 10 -13 47 -13 42 0 51 -3 48 -16 -2 -13 -18 -17 -82 -18
-54 -1 -81 -5 -83 -13 -3 -9 8 -13 34 -14 34 0 35 -1 13 -9 -14 -5 -51 -14
-82 -20 -47 -9 -58 -15 -58 -31 0 -13 7 -19 23 -19 25 1 57 22 57 38 0 5 9 8
20 5 26 -7 26 -23 -1 -23 -17 0 -20 -5 -17 -32 2 -19 -2 -33 -9 -35 -7 -3 -13
2 -13 11 0 12 -10 16 -35 16 -44 0 -46 -15 -2 -24 27 -6 29 -9 16 -18 -13 -9
-14 -18 -6 -54 10 -42 12 -44 46 -43 20 1 28 3 19 6 -10 2 -18 13 -18 24 0 10
-4 19 -10 19 -5 0 -10 7 -10 15 0 8 3 15 6 15 10 0 34 -28 34 -39 0 -15 82
-14 115 1 14 6 24 18 23 26 -2 8 4 17 12 19 9 3 11 1 5 -4 -5 -4 -10 -14 -11
-20 -2 -29 -5 -33 -23 -33 -11 0 -23 -4 -26 -10 -3 -5 -19 -10 -35 -10 -16 0
-32 -4 -35 -10 -3 -5 -15 -10 -26 -10 -24 0 -25 -27 -2 -33 10 -3 3 -5 -15 -6
-40 -1 -35 -16 10 -26 28 -7 30 -9 11 -12 -36 -7 -28 -33 10 -34 17 0 25 -3
17 -6 -8 -3 -26 -10 -40 -15 l-25 -10 23 -9 c12 -4 22 -16 22 -25 0 -10 11
-32 25 -50 l24 -32 -22 -16 c-19 -13 -20 -17 -7 -25 13 -10 13 -11 0 -12 -9 0
-7 -4 8 -11 26 -13 28 -23 7 -32 -9 -3 -13 -14 -11 -28 3 -13 5 -25 5 -28 1
-3 5 1 10 9 6 9 10 4 13 -17 2 -17 0 -28 -5 -25 -5 3 -7 -3 -5 -13 2 -11 10
-19 18 -19 34 -1 46 -31 26 -63 -5 -8 -1 -21 8 -31 15 -17 15 -19 1 -24 -17
-7 -15 -49 3 -55 17 -5 15 -32 -3 -38 -8 -4 -15 -12 -15 -19 0 -7 7 -18 15
-25 21 -18 19 -37 -7 -43 -18 -5 -19 -8 -8 -21 7 -9 20 -16 29 -16 21 0 46
-39 33 -52 -15 -15 7 -88 27 -89 12 0 11 -2 -4 -9 -11 -5 -16 -9 -10 -9 5 -1
-1 -8 -13 -17 -29 -20 -28 -34 2 -34 23 0 23 -2 13 -41 -8 -34 -7 -46 7 -71
22 -37 15 -63 -13 -48 -11 6 -22 6 -25 1 -9 -13 22 -22 52 -14 24 6 26 5 14
-10 -8 -9 -11 -25 -8 -35 4 -11 1 -32 -6 -47 -11 -24 -10 -29 10 -45 12 -10
24 -35 28 -59 6 -37 4 -41 -20 -51 -28 -10 -26 -32 2 -29 29 2 38 -1 24 -10
-10 -6 -10 -15 4 -42 33 -65 34 -69 24 -69 -5 0 -10 -21 -10 -46 0 -44 1 -46
25 -40 20 5 25 3 25 -13 0 -10 -7 -21 -15 -25 -22 -8 -18 -24 7 -28 33 -5 31
-21 -3 -41 -26 -14 -29 -20 -19 -32 10 -12 10 -18 1 -29 -9 -10 -9 -16 -1 -21
22 -13 28 -49 11 -61 -13 -10 -13 -15 -2 -27 7 -9 10 -21 6 -27 -3 -5 -1 -10
4 -10 19 0 12 -33 -11 -58 l-23 -25 22 14 c12 7 24 11 26 9 3 -3 1 -32 -4 -65
-7 -50 -6 -62 8 -72 18 -14 10 -48 -8 -37 -8 4 -9 3 -5 -5 4 -6 11 -9 15 -7 4
3 13 1 21 -4 12 -7 9 -11 -10 -19 -22 -8 -22 -10 -5 -11 20 -1 20 -1 1 -15
-14 -11 -16 -15 -5 -15 9 0 10 -3 3 -8 -15 -10 -29 -66 -13 -57 18 12 29 -16
13 -33 -13 -12 -13 -16 2 -27 18 -13 12 -35 -11 -35 -16 0 -14 -62 3 -68 17
-5 15 -22 -3 -22 -8 0 -15 -7 -15 -15 0 -8 3 -14 8 -14 26 4 34 -3 28 -25 -4
-18 -1 -26 11 -29 11 -3 7 -5 -9 -6 -33 -1 -38 -21 -5 -21 12 0 29 -5 37 -10
12 -8 11 -10 -7 -10 -15 0 -28 -10 -38 -30 -21 -40 -19 -50 10 -50 14 0 25 -4
25 -9 0 -5 3 -16 6 -25 4 -12 0 -16 -15 -16 -12 0 -21 -4 -21 -10 0 -5 9 -10
20 -10 11 0 20 -6 20 -14 0 -8 6 -17 13 -20 6 -3 0 -4 -16 -2 -15 2 -30 -1
-33 -5 -3 -5 4 -9 15 -9 12 0 21 -4 21 -10 0 -5 -9 -10 -20 -10 -11 0 -20 -4
-20 -10 0 -5 9 -10 20 -10 11 0 20 -4 20 -10 0 -5 -9 -10 -19 -10 -27 0 -16
-35 26 -84 18 -22 30 -42 27 -45 -3 -3 -9 0 -13 7 -6 10 -11 9 -22 -4 -11 -14
-11 -18 3 -28 15 -11 15 -13 0 -23 -14 -9 -15 -13 -3 -24 10 -11 15 -11 18 -1
6 16 33 16 33 -1 0 -18 -21 -37 -41 -37 -25 0 -34 -19 -12 -27 21 -8 43 -35
37 -45 -3 -4 -11 -5 -19 -1 -8 3 -15 0 -15 -6 0 -6 6 -11 13 -11 9 0 12 -10 9
-32 -3 -22 0 -35 14 -45 10 -7 13 -13 6 -13 -19 0 -52 -33 -52 -52 0 -20 26
-25 33 -5 2 7 8 8 13 3 5 -5 4 -11 -3 -13 -7 -3 -13 -18 -13 -33 0 -16 -5 -32
-10 -35 -15 -9 9 -37 27 -31 21 9 15 -23 -10 -48 -23 -23 -23 -24 -5 -37 20
-14 24 -44 8 -54 -15 -9 -12 -58 6 -83 9 -14 14 -36 12 -53 -3 -21 0 -29 11
-30 10 0 11 -3 4 -5 -7 -3 -20 -1 -30 4 -16 9 -18 5 -20 -24 -3 -32 -2 -33 23
-23 15 5 29 7 32 5 8 -9 -19 -36 -37 -37 -9 -1 -5 -4 9 -8 26 -8 30 -36 7 -56
-7 -5 -11 -24 -9 -41 2 -25 -2 -33 -23 -42 -15 -7 -31 -10 -36 -7 -5 4 -9 1
-9 -6 0 -7 9 -9 22 -6 12 3 30 2 40 -4 20 -11 24 -47 6 -54 -22 -9 -15 -110 9
-144 22 -29 16 -51 -13 -51 -6 0 -14 -13 -16 -29 -3 -18 0 -27 6 -25 6 2 17 0
24 -4 18 -12 4 -42 -25 -53 -16 -6 -23 -15 -19 -24 3 -8 1 -15 -4 -15 -6 0
-10 -4 -10 -10 0 -5 11 -10 24 -10 14 0 27 -4 30 -9 10 -16 -13 -61 -31 -61
-10 0 -25 -5 -33 -10 -12 -8 -13 -13 -2 -30 10 -17 10 -20 -5 -20 -9 0 -13 -3
-9 -7 4 -5 13 -8 19 -8 7 0 12 -11 12 -25 0 -16 -6 -25 -15 -25 -9 0 -14 -8
-12 -21 1 -12 -4 -27 -13 -34 -8 -7 -15 -20 -15 -29 0 -9 -5 -22 -12 -29 -9
-9 -9 -12 0 -12 7 0 12 -7 12 -15 0 -8 -6 -15 -14 -15 -8 0 -16 -7 -20 -15 -3
-9 0 -15 9 -15 23 0 18 -18 -6 -25 -17 -6 -19 -9 -8 -16 12 -8 11 -12 -3 -23
-12 -8 -18 -27 -18 -51 0 -27 -4 -36 -13 -32 -8 3 -20 1 -28 -4 -11 -7 -11 -9
4 -9 9 0 17 -7 17 -15 0 -8 -8 -15 -17 -16 -15 0 -15 -2 2 -8 19 -8 19 -8 -3
-16 -32 -9 -63 -41 -57 -57 7 -18 -6 -35 -30 -41 -18 -4 -18 -5 3 -6 23 -1 32
-21 9 -21 -26 0 -67 -25 -67 -41 0 -9 -6 -22 -14 -29 -8 -6 -12 -18 -9 -26 4
-10 -3 -14 -22 -14 -18 0 -29 -6 -32 -20 -3 -11 -14 -20 -24 -20 -11 0 -19 -7
-19 -15 0 -8 5 -15 11 -15 6 0 4 -7 -5 -15 -8 -8 -21 -15 -28 -15 -18 0 -45
-43 -29 -48 24 -8 10 -31 -21 -35 l-33 -4 33 -1 c34 -2 46 -22 12 -22 -24 0
-70 -42 -52 -48 23 -7 12 -22 -12 -16 -18 4 -28 -1 -44 -24 -16 -22 -27 -28
-46 -25 -13 3 -27 0 -30 -6 -4 -6 0 -11 11 -11 14 -1 11 -7 -15 -31 -19 -17
-31 -36 -29 -43 4 -9 -2 -12 -16 -9 -19 4 -22 0 -21 -28 0 -18 6 -35 12 -37
15 -5 16 -42 2 -42 -5 0 -10 7 -10 15 0 8 -4 15 -10 15 -5 0 -10 -7 -10 -15 0
-8 -4 -15 -10 -15 -5 0 -10 7 -10 15 0 13 -2 14 -14 3 -9 -8 -11 -17 -5 -22
15 -16 10 -36 -9 -36 -11 0 -29 -8 -40 -19 -23 -19 -30 -51 -12 -51 6 0 10 -4
10 -10 0 -5 -9 -10 -20 -10 -27 0 -25 -12 6 -31 21 -13 23 -17 10 -22 -9 -4
-16 -2 -16 4 0 12 -39 2 -60 -16 -8 -7 -24 -15 -35 -18 -16 -4 -15 -5 6 -6 35
-1 59 -28 38 -42 -8 -5 -24 -12 -35 -15 -14 -4 -20 -11 -17 -23 3 -12 -6 -23
-30 -36 -33 -18 -41 -35 -22 -52 4 -4 5 -2 1 5 -4 7 -1 12 8 12 9 0 16 5 16
10 0 6 5 10 10 10 6 0 10 -9 10 -20 0 -11 -4 -20 -10 -20 -5 0 -10 -7 -10 -16
0 -12 -6 -15 -21 -11 -24 7 -49 -1 -49 -15 0 -5 9 -6 20 -3 11 4 20 2 20 -4 0
-8 800 -11 2723 -11 l2723 0 23 42 c12 24 44 81 70 128 26 47 60 108 76 135
105 188 208 312 370 445 111 92 191 188 340 411 71 107 153 228 182 269 29 41
58 84 65 94 34 50 248 339 297 401 30 39 123 140 207 226 244 252 299 352 339
624 57 382 177 727 365 1051 142 244 162 283 187 368 28 99 29 182 3 307 -26
129 -38 235 -45 434 -6 148 -4 188 15 308 16 100 21 167 18 240 -3 97 -5 105
-40 157 -73 112 -151 160 -274 168 -90 6 -159 -10 -248 -56 -128 -67 -209
-168 -336 -417 -95 -187 -159 -384 -175 -540 -3 -33 -11 -77 -16 -99 -6 -21
-9 -89 -8 -150 l3 -111 -38 -63 c-21 -35 -45 -89 -53 -120 -16 -64 -80 -196
-124 -257 -50 -68 -120 -178 -141 -220 -30 -60 -47 -75 -84 -75 -18 0 -44 -5
-58 -11 -22 -10 -30 -8 -58 13 -19 14 -47 52 -63 84 -16 33 -48 79 -71 104
-54 59 -141 225 -158 303 -8 34 -23 87 -34 117 -11 30 -23 72 -26 92 -6 33 -5
37 10 31 13 -5 12 -1 -4 15 -25 25 -30 57 -7 48 22 -8 19 20 -5 44 -13 13 -20
33 -19 58 0 43 16 127 18 97 1 -14 4 -16 9 -8 4 7 18 11 30 8 12 -2 22 0 22 6
0 5 -10 9 -21 9 -19 0 -20 4 -15 34 5 24 2 37 -9 46 -8 7 -15 20 -14 29 0 12
2 13 6 2 3 -7 15 -23 26 -34 l20 -20 -7 29 c-4 16 -14 42 -22 58 -16 33 -9 50
11 23 15 -21 28 -94 19 -108 -9 -15 16 -69 33 -69 11 0 11 4 3 21 -6 11 -8 34
-5 50 4 16 2 35 -3 42 -5 7 -13 27 -17 45 -6 30 -5 33 17 29 12 -2 17 -2 11 0
-7 3 -13 9 -13 14 0 5 -7 9 -16 9 -9 0 -14 6 -11 13 2 6 16 11 31 9 24 -3 26
-1 17 16 -5 10 -6 24 -1 32 11 19 -8 56 -35 68 -18 8 -25 8 -29 -1 -2 -7 -5 9
-5 35 l-1 48 31 -7 c29 -6 31 -5 20 15 -7 14 -17 18 -31 15 -19 -5 -20 -1 -20
173 0 204 1 209 94 441 31 78 56 145 56 148 0 16 109 317 178 490 129 328 141
372 207 755 15 85 38 189 50 230 13 41 35 134 49 206 14 71 42 191 61 265 20
74 45 181 56 239 11 58 29 152 41 210 28 136 30 302 5 381 -24 76 -100 156
-188 198 -56 26 -78 31 -135 30 -38 0 -80 -4 -94 -8z m234 -76 c-4 -10 0 -15
13 -15 14 0 26 -13 38 -41 l19 -41 -34 -67 c-22 -42 -42 -67 -55 -70 -17 -3
-18 -1 -6 13 12 14 11 19 -4 36 -12 13 -15 27 -11 45 5 18 2 25 -8 25 -11 0
-15 11 -13 45 2 45 13 58 23 30 10 -25 23 -7 19 25 -2 21 1 30 10 30 9 0 12
-6 9 -15z m149 -100 c4 -8 3 -16 -1 -19 -4 -3 -9 4 -9 15 -2 23 3 25 10 4z
m-1390 -1311 c11 -11 -3 -24 -18 -18 -8 4 -12 10 -9 15 6 11 18 12 27 3z m67
-4 c12 -8 12 -10 -3 -16 -9 -3 -25 -3 -34 0 -15 6 -15 8 -3 16 8 6 17 10 20
10 3 0 12 -4 20 -10z m-40 -29 c0 -12 -28 -22 -34 -12 -3 5 -3 11 1 15 9 9 33
7 33 -3z m60 -1 c0 -5 -4 -10 -10 -10 -5 0 -10 5 -10 10 0 6 5 10 10 10 6 0
10 -4 10 -10z m-100 -55 c0 -8 -7 -15 -15 -15 -16 0 -20 12 -8 23 11 12 23 8
23 -8z m-94 -55 c8 0 14 -4 14 -10 0 -5 -4 -10 -8 -10 -12 0 -32 22 -31 35 0
5 3 4 6 -2 2 -7 11 -13 19 -13z m82 -13 c2 -9 -2 -17 -8 -17 -7 0 -10 6 -7 14
3 8 2 17 -4 20 -5 2 -4 3 3 2 7 -1 14 -10 16 -19z m-43 -28 c11 -17 -1 -21
-15 -4 -8 9 -8 15 -2 15 6 0 14 -5 17 -11z m-45 -24 c10 -12 10 -15 -3 -15 -8
0 -20 7 -27 15 -10 12 -10 15 3 15 8 0 20 -7 27 -15z m165 -13 c-3 -3 -11 0
-18 7 -9 10 -8 11 6 5 10 -3 15 -9 12 -12z m-265 -26 c0 -3 -4 -8 -10 -11 -5
-3 -10 -1 -10 4 0 6 5 11 10 11 6 0 10 -2 10 -4z m-15 -52 c13 -5 14 -8 3 -15
-19 -13 -28 -11 -28 6 0 17 2 18 25 9z m-105 -44 c0 -5 -4 -10 -10 -10 -5 0
-10 5 -10 10 0 6 5 10 10 10 6 0 10 -4 10 -10z m195 -10 c3 -5 1 -10 -4 -10
-6 0 -11 5 -11 10 0 6 2 10 4 10 3 0 8 -4 11 -10z m-187 -67 c-10 -2 -26 -2
-35 0 -10 3 -2 5 17 5 19 0 27 -2 18 -5z m-3 -73 c17 -7 15 -9 -12 -9 -18 -1
-33 4 -33 9 0 12 17 12 45 0z m-85 -34 c0 -3 -4 -8 -10 -11 -5 -3 -10 -1 -10
4 0 6 5 11 10 11 6 0 10 -2 10 -4z m5 -106 c3 -5 2 -10 -4 -10 -5 0 -18 -3
-28 -7 -16 -6 -16 -5 -4 10 15 19 27 22 36 7z m-157 -142 c11 -14 10 -16 -7
-11 -12 3 -17 11 -14 19 3 8 6 14 7 12 1 -2 7 -11 14 -20z m-3875 -88 c-2 -2
-8 2 -13 10 -9 13 -10 13 -11 0 -1 -18 -17 18 -18 40 -1 13 0 13 9 0 8 -12 10
-10 11 10 0 20 3 17 13 -15 7 -22 11 -42 9 -45z m-90 -20 c7 0 7 -3 2 -9 -6
-5 -23 -7 -38 -4 -21 4 -25 8 -15 14 7 5 19 7 26 4 8 -3 19 -5 25 -5z m-76
-16 c-3 -3 -12 -4 -19 -1 -8 3 -5 6 6 6 11 1 17 -2 13 -5z m74 -42 c-7 -2 -18
1 -23 6 -8 8 -4 9 13 5 13 -4 18 -8 10 -11z m-74 2 c-3 -3 -12 -4 -19 -1 -8 3
-5 6 6 6 11 1 17 -2 13 -5z m191 -35 c-5 -4 -19 -4 -30 -1 -20 5 -19 6 3 18
18 9 26 9 31 1 4 -6 2 -14 -4 -18z m32 -39 c0 -5 -8 -10 -17 -10 -15 0 -16 2
-3 10 19 12 20 12 20 0z m-280 -20 c0 -5 -4 -10 -10 -10 -5 0 -10 5 -10 10 0
6 5 10 10 10 6 0 10 -4 10 -10z m1795 -10 c3 -5 -1 -10 -10 -10 -9 0 -13 5
-10 10 3 6 8 10 10 10 2 0 7 -4 10 -10z m-1772 -97 c-7 -2 -19 -2 -25 0 -7 3
-2 5 12 5 14 0 19 -2 13 -5z m375 -95 c15 -15 16 -38 1 -38 -6 0 -9 7 -5 15 3
8 -2 19 -12 24 -9 6 -12 11 -6 11 5 0 15 -5 22 -12z m1266 -19 c-3 -5 -10 -7
-15 -3 -5 3 -7 10 -3 15 3 5 10 7 15 3 5 -3 7 -10 3 -15z m61 -29 c3 -5 1 -10
-4 -10 -6 0 -11 5 -11 10 0 6 2 10 4 10 3 0 8 -4 11 -10z m-1675 -34 c0 -3 -4
-8 -10 -11 -5 -3 -10 -1 -10 4 0 6 5 11 10 11 6 0 10 -2 10 -4z m1588 -64 c2
-7 -3 -12 -12 -12 -9 0 -16 7 -16 16 0 17 22 14 28 -4z m-8 -62 c0 -5 -5 -10
-11 -10 -5 0 -7 5 -4 10 3 6 8 10 11 10 2 0 4 -4 4 -10z m-142 -50 c4 0 15 9
25 20 9 11 21 20 27 20 12 0 12 -2 0 -35 -8 -22 -15 -25 -45 -23 -47 3 -67 25
-40 45 18 13 20 12 23 -6 2 -12 7 -21 10 -21z m102 5 c0 -2 -10 -10 -22 -16
-21 -11 -22 -11 -9 4 13 16 31 23 31 12z m2647 -21 c-3 -3 -12 -4 -19 -1 -8 3
-5 6 6 6 11 1 17 -2 13 -5z m-2743 -33 c3 -5 -3 -11 -14 -14 -20 -5 -26 3 -13
16 9 10 21 9 27 -2z m26 -41 c0 -5 -7 -7 -15 -4 -8 4 -15 8 -15 10 0 2 7 4 15
4 8 0 15 -4 15 -10z m-60 -26 c0 -8 -4 -12 -10 -9 -5 3 -10 10 -10 16 0 5 5 9
10 9 6 0 10 -7 10 -16z m50 -64 c0 -5 -2 -10 -4 -10 -3 0 -8 5 -11 10 -3 6 -1
10 4 10 6 0 11 -4 11 -10z m5534 -146 c-7 -3 -10 -14 -7 -24 7 -25 -22 -28
-31 -4 -8 22 1 34 27 33 12 0 17 -3 11 -5z m27 -37 c-1 -12 -15 -9 -19 4 -3 6
1 10 8 8 6 -3 11 -8 11 -12z m188 -149 l-1 -63 -8 55 c-8 50 -6 70 6 70 2 0 3
-28 3 -62z m-219 -159 c0 -11 -30 -5 -68 14 -21 10 -22 12 -5 18 20 7 73 -16
73 -32z m-6870 -33 c0 -8 -4 -18 -10 -21 -5 -3 -10 3 -10 14 0 12 5 21 10 21
6 0 10 -6 10 -14z m5152 -243 c10 -13 3 -33 -13 -33 -5 0 -8 19 -8 43 1 23 4
33 6 22 3 -11 10 -25 15 -32z m-57 -253 c3 -5 1 -10 -4 -10 -6 0 -11 5 -11 10
0 6 2 10 4 10 3 0 8 -4 11 -10z m-4980 -310 c3 -5 1 -10 -4 -10 -6 0 -11 5
-11 10 0 6 2 10 4 10 3 0 8 -4 11 -10z m13 -72 c-6 -18 -28 -21 -28 -4 0 9 7
16 16 16 9 0 14 -5 12 -12z m-253 -3347 c3 -5 1 -12 -5 -16 -5 -3 -10 1 -10 9
0 18 6 21 15 7z m-155 -156 c0 -8 -4 -15 -10 -15 -5 0 -10 7 -10 15 0 8 5 15
10 15 6 0 10 -7 10 -15z m-180 -335 c0 -5 -8 -10 -17 -10 -15 0 -16 2 -3 10
19 12 20 12 20 0z m-160 -150 c0 -11 -4 -20 -10 -20 -5 0 -10 9 -10 20 0 11 5
20 10 20 6 0 10 -9 10 -20z m40 0 c0 -5 -4 -10 -10 -10 -5 0 -10 5 -10 10 0 6
5 10 10 10 6 0 10 -4 10 -10z"/>
<path d="M5895 7520 c-3 -5 1 -10 9 -10 9 0 16 5 16 10 0 6 -4 10 -9 10 -6 0
-13 -4 -16 -10z"/>
<path d="M5920 7476 c0 -9 5 -16 10 -16 6 0 10 4 10 9 0 6 -4 13 -10 16 -5 3
-10 -1 -10 -9z"/>
<path d="M5900 7410 c0 -5 5 -10 10 -10 6 0 10 5 10 10 0 6 -4 10 -10 10 -5 0
-10 -4 -10 -10z"/>
<path d="M5520 7394 c0 -8 5 -12 10 -9 6 4 8 11 5 16 -9 14 -15 11 -15 -7z"/>
<path d="M5356 7325 c4 -8 10 -12 15 -9 11 6 2 24 -11 24 -5 0 -7 -7 -4 -15z"/>
<path d="M5415 7230 c3 -5 10 -10 16 -10 5 0 9 5 9 10 0 6 -7 10 -16 10 -8 0
-12 -4 -9 -10z"/>
<path d="M5354 7195 c-3 -8 -4 -20 -1 -27 3 -7 6 -3 6 10 1 34 19 26 23 -10
l4 -33 8 29 c6 20 5 31 -5 37 -20 12 -29 11 -35 -6z"/>
<path d="M5288 7043 c7 -3 16 -2 19 1 4 3 -2 6 -13 5 -11 0 -14 -3 -6 -6z"/>
<path d="M5225 7000 c3 -5 8 -10 11 -10 2 0 4 5 4 10 0 6 -5 10 -11 10 -5 0
-7 -4 -4 -10z"/>
<path d="M5215 6950 c4 -6 11 -8 16 -5 14 9 11 15 -7 15 -8 0 -12 -5 -9 -10z"/>
<path d="M5196 6913 c-6 -14 -5 -15 5 -6 7 7 10 15 7 18 -3 3 -9 -2 -12 -12z"/>
<path d="M5770 6802 c0 -5 7 -9 15 -9 8 0 12 4 9 9 -3 4 -9 8 -15 8 -5 0 -9
-4 -9 -8z"/>
<path d="M1098 6773 c7 -3 16 -2 19 1 4 3 -2 6 -13 5 -11 0 -14 -3 -6 -6z"/>
<path d="M1025 6760 c-8 -13 25 -13 45 0 12 8 9 10 -12 10 -15 0 -30 -4 -33
-10z"/>
<path d="M1070 6704 c0 -17 22 -14 28 4 2 7 -3 12 -12 12 -9 0 -16 -7 -16 -16z"/>
<path d="M1218 6713 c-10 -2 -18 -11 -18 -19 0 -21 38 -17 50 6 11 21 6 23
-32 13z"/>
<path d="M5712 6711 c2 -7 7 -12 11 -12 12 1 9 15 -3 20 -7 2 -11 -2 -8 -8z"/>
<path d="M1015 6650 c-4 -6 5 -10 20 -10 15 0 24 4 20 10 -3 6 -12 10 -20 10
-8 0 -17 -4 -20 -10z"/>
<path d="M968 6593 c7 -3 16 -2 19 1 4 3 -2 6 -13 5 -11 0 -14 -3 -6 -6z"/>
<path d="M5686 6544 c-4 -9 -4 -19 -1 -22 2 -3 7 3 11 12 4 9 4 19 1 22 -2 3
-7 -3 -11 -12z"/>
<path d="M3035 6459 c-4 -6 -5 -12 -2 -15 2 -3 7 2 10 11 7 17 1 20 -8 4z"/>
<path d="M2640 6313 c0 -10 101 -35 109 -28 10 11 -15 23 -61 29 -27 4 -48 4
-48 -1z"/>
<path d="M2648 6253 c7 -3 16 -2 19 1 4 3 -2 6 -13 5 -11 0 -14 -3 -6 -6z"/>
<path d="M2725 6240 c3 -5 13 -10 21 -10 8 0 12 5 9 10 -3 6 -13 10 -21 10 -8
0 -12 -4 -9 -10z"/>
<path d="M5535 6190 c3 -5 8 -10 11 -10 2 0 4 5 4 10 0 6 -5 10 -11 10 -5 0
-7 -4 -4 -10z"/>
<path d="M2560 6180 c0 -6 7 -10 15 -10 8 0 15 2 15 4 0 2 -7 6 -15 10 -8 3
-15 1 -15 -4z"/>
<path d="M2586 6071 c-3 -5 7 -11 22 -14 32 -6 42 0 22 13 -19 12 -37 13 -44
1z"/>
<path d="M5465 6050 c-3 -5 -1 -10 4 -10 6 0 11 5 11 10 0 6 -2 10 -4 10 -3 0
-8 -4 -11 -10z"/>
<path d="M1170 5420 c0 -5 7 -10 15 -10 8 0 15 5 15 10 0 6 -7 10 -15 10 -8 0
-15 -4 -15 -10z"/>
<path d="M1180 5371 c0 -6 5 -13 10 -16 6 -3 10 1 10 9 0 9 -4 16 -10 16 -5 0
-10 -4 -10 -9z"/>
<path d="M6400 5095 c0 -8 5 -15 10 -15 6 0 10 7 10 15 0 8 -4 15 -10 15 -5 0
-10 -7 -10 -15z"/>
<path d="M6350 4656 c0 -8 6 -17 13 -20 10 -5 10 -7 0 -12 -15 -7 -18 -64 -3
-64 20 0 24 5 22 27 -2 11 2 24 7 28 17 10 13 21 -14 39 -21 14 -25 14 -25 2z"/>
<path d="M6420 4620 c0 -5 5 -10 10 -10 6 0 10 5 10 10 0 6 -4 10 -10 10 -5 0
-10 -4 -10 -10z"/>
<path d="M1425 2740 c-3 -5 -1 -10 4 -10 6 0 11 5 11 10 0 6 -2 10 -4 10 -3 0
-8 -4 -11 -10z"/>
<path d="M1425 2090 c-3 -5 -1 -10 4 -10 6 0 11 5 11 10 0 6 -2 10 -4 10 -3 0
-8 -4 -11 -10z"/>
<path d="M1425 1780 c3 -5 8 -10 11 -10 2 0 4 5 4 10 0 6 -5 10 -11 10 -5 0
-7 -4 -4 -10z"/>
<path d="M800 735 c0 -8 7 -15 16 -15 14 0 14 3 4 15 -7 8 -14 15 -16 15 -2 0
-4 -7 -4 -15z"/>
<path d="M625 510 c3 -5 8 -10 11 -10 2 0 4 5 4 10 0 6 -5 10 -11 10 -5 0 -7
-4 -4 -10z"/>
</g>
</svg>
