<?xml version="1.0" standalone="no"?>
<!DOCTYPE svg PUBLIC "-//W3C//DTD SVG 20010904//EN"
 "http://www.w3.org/TR/2001/REC-SVG-20010904/DTD/svg10.dtd">
<svg version="1.0" xmlns="http://www.w3.org/2000/svg"
role="img" viewBox="0 0 960.000000 1280.000000"
 preserveAspectRatio="xMidYMid meet">

<g transform="translate(0.000000,1280.000000) scale(0.100000,-0.100000)"
fill="#000000" stroke="none">
<path fill="currentColor" d="M2345 11301 c-131 -32 -234 -134 -275 -272 -35 -118 -25 -258 39
-508 16 -64 37 -154 46 -201 16 -83 99 -381 129 -468 9 -23 31 -116 51 -205
20 -89 49 -202 65 -252 16 -49 52 -182 80 -295 77 -310 116 -433 181 -572 32
-69 59 -129 59 -131 0 -3 20 -47 44 -99 117 -249 195 -433 262 -613 18 -49 56
-146 84 -215 50 -121 52 -129 56 -240 3 -63 6 -132 8 -152 4 -41 -10 -53 -17
-15 -4 20 -4 19 -6 -4 -1 -29 -20 -42 -41 -29 -10 6 -9 9 1 13 8 3 1 6 -16 6
-16 1 -37 6 -45 12 -11 8 -4 9 28 6 32 -4 42 -2 42 9 0 8 -5 14 -11 14 -9 0
-9 4 0 13 16 20 -24 56 -41 39 -17 -17 -28 -15 -28 7 0 10 -6 24 -14 31 -8 6
-16 21 -18 33 -3 24 -48 38 -48 16 0 -7 -3 -9 -7 -6 -3 4 2 16 12 28 16 16 17
22 6 28 -8 5 -11 13 -8 18 6 10 -14 13 -83 14 -41 0 -43 2 -26 14 10 8 23 12
27 9 5 -3 21 2 36 10 24 13 25 15 8 17 -11 1 -23 1 -27 0 -4 0 -19 4 -33 9
-30 11 -56 3 -48 -16 5 -14 -19 -44 -36 -44 -17 0 -13 27 4 34 8 3 15 15 15
26 0 16 7 20 31 20 17 0 28 4 24 10 -3 6 -21 10 -40 10 -40 0 -55 25 -21 34
28 7 41 42 19 50 -8 3 -12 10 -9 15 8 12 -41 23 -66 15 -17 -5 -20 -3 -15 10
4 9 1 16 -5 16 -6 0 -17 8 -24 18 -13 16 -15 16 -28 0 -8 -11 -27 -18 -46 -18
-28 0 -32 3 -28 23 l4 23 -58 -15 c-46 -11 -58 -18 -58 -34 0 -17 5 -19 49
-15 44 4 50 2 60 -19 6 -13 19 -23 31 -23 12 0 20 -7 20 -16 0 -13 -6 -15 -27
-10 -16 4 -53 9 -83 11 -52 4 -51 2 10 -12 23 -5 24 -6 5 -13 -17 -6 -16 -8
13 -14 17 -4 32 -12 32 -17 0 -14 -28 -11 -33 4 -3 6 -6 3 -6 -8 -1 -27 10
-42 34 -48 11 -2 -10 -5 -47 -6 -37 0 -70 -5 -73 -11 -3 -5 -1 -10 4 -10 6 0
11 -6 11 -13 0 -7 15 -18 33 -25 23 -9 28 -15 19 -21 -11 -7 -10 -10 3 -15 23
-9 25 -8 25 9 0 8 4 15 8 15 5 0 5 -26 1 -57 -4 -32 -6 -59 -3 -62 2 -2 4 3 4
12 0 20 36 23 43 5 4 -10 7 -10 18 0 20 19 31 14 17 -8 -7 -11 -20 -20 -30
-20 -23 0 -48 -27 -42 -45 4 -8 1 -15 -5 -15 -6 0 -11 5 -11 12 0 6 -2 9 -5 6
-12 -12 8 -36 36 -42 50 -10 37 -36 -18 -37 -43 -1 -45 -2 -17 -8 44 -11 54
-19 54 -46 0 -28 19 -43 30 -25 6 9 9 10 15 0 8 -13 -11 -30 -32 -30 -28 0
-11 -19 22 -26 44 -8 48 -15 36 -61 -10 -34 -8 -40 11 -54 l21 -17 -21 -13
c-19 -12 -19 -14 -4 -26 16 -11 16 -12 -1 -13 -15 0 -15 -3 -5 -20 10 -15 10
-24 1 -38 -7 -12 -8 -24 -1 -35 7 -14 3 -21 -21 -35 -35 -19 -49 -42 -22 -35
9 2 28 -5 42 -16 l24 -21 -24 -20 c-18 -15 -19 -20 -7 -20 9 0 16 -4 16 -10 0
-5 -4 -10 -10 -10 -5 0 -10 -9 -10 -20 0 -11 4 -20 9 -20 4 0 6 -23 3 -51 -3
-37 -1 -54 9 -59 10 -7 6 -11 -14 -19 -23 -9 -26 -15 -23 -43 2 -18 4 -38 5
-44 0 -7 10 -14 21 -17 11 -3 20 -10 20 -15 0 -5 -9 -12 -20 -15 -15 -4 -20
-14 -20 -39 0 -19 6 -40 12 -46 10 -10 10 -17 0 -32 -15 -24 -16 -52 -2 -66 8
-8 6 -15 -5 -24 -14 -12 -18 -11 -25 0 -6 9 -8 0 -6 -24 2 -21 8 -41 13 -45
12 -7 25 -53 13 -46 -5 3 -10 -1 -13 -7 -4 -12 -29 63 -30 90 0 6 -4 12 -7 12
-20 0 -30 76 -35 285 -8 324 -21 427 -73 590 -49 150 -178 420 -266 552 -83
127 -202 219 -353 273 -53 19 -77 22 -155 18 -143 -7 -243 -59 -323 -168 -64
-88 -80 -227 -50 -434 36 -247 55 -432 59 -576 3 -91 2 -139 -3 -115 -6 31 -8
34 -10 13 -1 -21 -5 -25 -21 -21 -11 3 -20 10 -20 15 0 6 -7 5 -15 -2 -8 -7
-15 -19 -15 -26 0 -19 -20 -17 -36 4 -12 15 -13 14 -14 -10 0 -16 -6 -28 -12
-28 -10 0 -9 -3 1 -9 7 -5 13 -25 13 -45 0 -35 1 -36 18 -21 17 15 19 15 28
-2 9 -14 6 -22 -16 -40 -26 -20 -26 -22 -9 -41 17 -18 17 -20 -2 -33 -28 -19
-31 -42 -6 -44 11 -1 30 -2 43 -3 12 -1 22 -9 22 -17 0 -12 -4 -13 -18 -6 -21
11 -72 9 -72 -2 0 -5 -9 -22 -21 -38 -16 -23 -17 -29 -5 -29 8 0 21 7 30 15
24 25 42 17 18 -8 -12 -13 -22 -30 -22 -38 0 -11 2 -11 9 -1 6 10 10 10 21 -3
10 -13 9 -15 -8 -15 -11 0 -26 -7 -33 -16 -11 -13 -10 -17 4 -25 23 -14 21
-39 -3 -39 -11 0 -20 -4 -20 -10 0 -5 6 -10 14 -10 8 0 17 -9 21 -19 3 -11 18
-24 33 -30 25 -10 24 -10 -15 -9 -53 3 -65 -8 -34 -31 20 -16 22 -20 9 -31
-13 -12 -9 -19 26 -53 28 -27 46 -37 61 -33 11 3 27 1 35 -4 12 -8 12 -10 -2
-15 -10 -4 -21 -4 -26 -1 -13 8 -73 -17 -69 -29 2 -5 18 -9 36 -9 17 1 31 -2
31 -7 0 -5 -4 -9 -10 -9 -5 0 -10 -5 -10 -12 0 -6 -6 -19 -14 -27 -13 -14 -13
-20 1 -49 10 -20 21 -31 29 -28 22 8 44 -4 44 -25 0 -10 -4 -19 -8 -19 -5 0
-17 -7 -28 -16 -10 -8 -13 -13 -7 -9 9 4 13 -5 13 -31 0 -40 20 -63 57 -64 34
0 36 -16 6 -39 -19 -14 -23 -20 -12 -21 21 0 44 -49 29 -64 -7 -7 -10 -5 -10
8 0 28 -25 12 -28 -18 -3 -20 5 -37 24 -57 15 -16 23 -29 18 -29 -16 0 -35
-40 -29 -61 4 -12 15 -19 30 -19 14 0 29 -8 35 -19 14 -26 14 -26 -15 -57 -26
-28 -27 -46 -2 -26 15 13 27 6 27 -15 0 -8 -14 -19 -30 -25 -23 -8 -28 -13
-20 -23 5 -7 21 -10 35 -7 15 2 25 0 25 -7 0 -6 -14 -11 -31 -11 -18 0 -28 -4
-24 -10 4 -6 14 -8 23 -6 10 3 24 1 32 -4 12 -8 13 -11 1 -19 -7 -5 -9 -11 -5
-13 11 -6 -10 0 -33 9 -16 6 -15 3 2 -17 14 -16 16 -24 8 -27 -18 -6 -16 -33
2 -33 9 0 12 -6 9 -15 -4 -9 0 -15 10 -15 9 0 16 5 16 10 0 6 5 10 10 10 7 0
7 -6 0 -19 -5 -11 -10 -41 -10 -67 0 -33 -5 -51 -17 -60 -19 -14 -11 -18 33
-15 25 2 39 -25 24 -44 -12 -15 -7 -19 33 -29 25 -6 39 -26 17 -26 -5 0 -10
-9 -10 -20 0 -11 4 -20 10 -20 5 0 13 -12 16 -27 12 -51 24 -66 40 -52 11 9
14 8 14 -5 0 -9 7 -16 16 -16 11 0 14 -5 10 -16 -8 -21 11 -44 36 -44 14 0 18
-5 14 -16 -7 -19 45 -74 71 -74 15 0 16 -2 3 -10 -12 -8 -13 -12 -2 -19 8 -4
13 -21 11 -37 -5 -63 -2 -67 41 -61 35 4 40 2 40 -14 0 -10 -6 -19 -12 -19 -8
0 -9 -3 -3 -8 13 -9 34 -42 41 -64 4 -10 13 -18 20 -18 8 0 14 -5 14 -10 0 -6
12 -16 28 -22 21 -9 23 -12 10 -15 -28 -7 -21 -20 14 -27 30 -6 30 -7 14 -25
-13 -15 -14 -21 -5 -27 7 -4 15 -2 17 4 8 24 24 12 18 -13 -4 -17 0 -31 14
-45 25 -25 26 -50 3 -51 -19 -1 -13 -4 45 -24 16 -5 22 -15 22 -36 0 -20 5
-29 16 -29 8 0 36 -9 61 -21 35 -16 43 -23 32 -30 -12 -8 -12 -10 1 -19 8 -5
23 -10 33 -10 9 0 17 -4 17 -10 0 -5 -4 -10 -10 -10 -26 0 -6 -30 28 -41 20
-7 31 -14 24 -16 -18 -7 -16 -83 3 -83 10 0 15 -10 15 -33 0 -48 21 -85 51
-91 40 -8 59 -33 59 -77 0 -28 4 -39 15 -39 11 0 15 -11 15 -41 0 -32 4 -42
20 -46 28 -8 27 -49 -2 -58 l-23 -7 25 -7 c22 -6 23 -8 7 -14 -11 -4 -23 -5
-27 -2 -5 3 -11 1 -15 -5 -3 -5 3 -10 14 -10 12 0 21 -4 21 -10 0 -5 -9 -10
-21 -10 -11 0 -17 -5 -14 -10 4 -6 10 -8 15 -5 17 11 37 -7 38 -34 0 -20 -6
-32 -21 -39 -14 -7 -17 -11 -7 -11 10 -1 11 -4 3 -9 -12 -8 -16 -24 -14 -59 1
-14 9 -23 24 -26 18 -3 16 -5 -8 -6 l-30 -3 30 -13 30 -14 -32 -1 c-18 0 -33
-4 -33 -10 0 -5 15 -11 33 -12 27 -1 26 -2 -13 -8 -25 -4 -35 -8 -24 -8 21 -2
22 -6 19 -114 -2 -90 -5 -113 -18 -123 -21 -15 -22 -25 -2 -25 8 0 15 -4 15
-10 0 -5 -7 -10 -15 -10 -8 0 -15 -4 -15 -10 0 -5 -9 -10 -19 -10 -11 0 -23
-4 -26 -10 -4 -6 13 -10 42 -11 l48 -1 -40 -10 c-22 -6 -43 -16 -47 -21 -10
-17 2 -29 23 -24 29 8 35 -14 10 -34 -12 -10 -21 -21 -20 -26 4 -21 -3 -32
-22 -38 -19 -6 -19 -8 -4 -25 16 -18 16 -21 -4 -46 -12 -15 -21 -33 -21 -40 0
-7 -7 -17 -16 -22 -8 -5 -16 -16 -18 -24 -1 -9 -8 -23 -15 -32 -12 -14 -11
-19 4 -36 17 -19 17 -20 -1 -20 -11 0 -25 5 -31 11 -8 8 -13 5 -18 -10 -7 -24
9 -51 32 -51 8 0 13 -6 11 -12 -4 -11 -40 -28 -97 -44 -11 -4 -10 -7 4 -18 10
-7 15 -18 11 -24 -4 -7 -2 -12 5 -12 22 0 -4 -18 -31 -22 -30 -4 -39 -34 -15
-52 13 -10 9 -11 -27 -8 -38 3 -41 1 -26 -11 22 -17 12 -29 -17 -21 -29 7 -39
-9 -25 -37 10 -17 8 -28 -6 -55 -16 -30 -23 -34 -57 -34 -32 0 -37 -3 -28 -14
9 -10 8 -16 -4 -26 -20 -17 -8 -33 20 -26 26 7 37 -10 28 -43 -5 -21 -61 -39
-82 -26 -6 3 -11 -1 -11 -9 0 -11 -10 -16 -33 -16 -26 0 -35 -6 -45 -28 -7
-16 -23 -35 -37 -42 -14 -7 -25 -20 -26 -29 0 -12 -2 -11 -8 4 -7 16 -9 14
-14 -14 -4 -19 -7 -37 -7 -42 0 -13 47 -11 53 1 3 6 4 5 3 -2 -3 -17 -93 -23
-111 -8 -9 8 -15 8 -20 0 -3 -5 -20 -10 -36 -10 -17 0 -28 4 -24 10 3 6 -1 7
-10 4 -28 -11 -11 -26 32 -29 23 -2 52 -10 63 -18 l21 -14 -23 -7 c-13 -3 -37
-6 -55 -6 -21 0 -44 -10 -66 -30 -34 -30 -67 -39 -67 -20 0 6 5 10 10 10 6 0
10 6 10 14 0 9 -13 16 -32 19 l-33 3 30 8 c31 8 66 57 45 64 -5 2 -10 11 -10
20 0 13 -3 13 -12 4 -10 -10 -10 -15 2 -22 21 -13 5 -23 -24 -16 -16 4 -23 11
-20 20 3 7 -2 29 -10 47 -8 19 -15 27 -15 18 -1 -9 -10 -19 -22 -22 -23 -6
-17 -27 7 -27 10 0 14 -13 14 -50 0 -27 -5 -50 -10 -50 -6 0 -8 15 -4 40 5 33
4 40 -10 40 -9 0 -16 -8 -16 -20 0 -11 -5 -20 -10 -20 -17 0 -24 31 -10 40 12
8 11 24 -5 62 -5 13 0 18 22 21 15 2 9 3 -14 2 -42 -2 -43 -2 -53 36 -9 34
-14 39 -40 39 -23 0 -30 4 -30 20 0 23 -52 50 -58 31 -6 -18 -30 -13 -42 8 -8
16 -6 20 8 24 13 3 11 6 -11 15 -15 6 -27 16 -27 22 0 6 12 16 27 22 26 11 27
12 6 15 -13 3 -24 15 -29 31 -5 20 -8 23 -11 9 -3 -13 -11 -15 -29 -11 -14 4
-31 1 -39 -6 -13 -10 -15 -8 -15 14 0 19 5 26 18 26 29 0 34 12 9 25 -18 9
-24 8 -35 -7 -14 -19 -47 -24 -57 -8 -3 5 -11 7 -18 4 -8 -3 -24 0 -38 5 -24
9 -24 10 9 16 22 5 32 13 32 26 0 11 -7 19 -15 19 -20 0 -65 22 -65 32 0 4 18
8 39 8 33 0 51 12 51 33 0 1 -20 1 -45 -1 -36 -3 -45 -1 -45 12 0 9 5 16 10
16 21 0 9 28 -15 34 -17 4 -25 13 -25 27 0 19 -4 21 -37 16 -23 -4 -33 -3 -24
2 22 14 6 38 -31 46 -18 4 -45 15 -61 23 -23 14 -27 23 -27 60 0 43 0 44 -30
37 -25 -5 -29 -4 -24 9 4 11 -4 21 -25 33 -43 25 -39 34 11 28 24 -2 35 -2 26
1 -22 7 -24 44 -3 44 8 0 15 9 15 21 0 11 5 29 10 39 7 13 7 21 0 25 -5 3 -10
1 -10 -4 0 -6 -18 -11 -40 -11 -36 0 -40 -2 -40 -25 0 -34 -19 -31 -31 5 -7
19 -18 30 -30 30 -12 0 -19 7 -19 20 0 17 7 20 40 20 37 0 40 2 40 28 0 20 -7
30 -27 40 -15 6 -33 12 -40 12 -7 0 -13 11 -13 25 0 18 -5 25 -20 25 -11 0
-23 7 -26 15 -7 18 -31 20 -37 3 -4 -10 -7 -10 -18 -1 -9 10 -10 13 -1 13 8 0
5 13 -8 37 -11 21 -20 46 -20 55 0 10 -7 18 -15 18 -8 0 -15 -8 -15 -17 0 -16
-1 -16 -17 0 -16 16 -16 19 -2 30 8 7 18 19 21 28 5 13 2 16 -12 12 -11 -3
-25 -11 -31 -19 -13 -16 -39 -19 -39 -5 0 5 -6 11 -13 14 -6 2 0 2 15 0 27 -4
28 -3 28 41 0 41 2 45 28 48 21 2 30 11 38 38 10 28 9 36 -1 38 -8 2 -15 11
-17 19 -3 15 -4 15 -20 0 -9 -9 -21 -17 -26 -17 -6 0 -12 -5 -14 -10 -2 -7
-15 -6 -36 2 -28 11 -32 17 -32 50 0 27 -4 38 -15 38 -10 0 -15 10 -15 28 0
30 -38 55 -68 45 -15 -4 -15 -3 -2 6 8 6 27 11 43 11 15 0 27 5 27 10 0 6 -13
10 -30 10 -16 0 -30 5 -30 10 0 6 14 10 30 10 41 0 38 20 -2 21 -32 0 -32 1
-9 10 14 5 31 7 38 5 7 -3 13 -1 13 5 0 15 -29 22 -44 10 -15 -13 -172 -35
-192 -27 -12 5 -14 -229 -14 -1434 l0 -1440 3205 0 3206 0 -5 33 c-3 17 -10
82 -17 142 -18 177 -63 491 -108 745 -11 63 -25 198 -31 300 -6 102 -15 237
-20 300 -5 63 -9 229 -9 368 -1 153 -5 252 -11 252 -5 0 -10 -30 -12 -67 l-3
-68 -5 81 c-4 72 -3 80 12 77 13 -4 17 5 20 54 4 51 20 151 59 367 6 32 22 77
37 100 38 57 120 236 150 326 14 41 36 105 49 142 14 38 56 191 94 340 38 150
75 296 83 323 33 115 75 284 86 340 83 450 122 841 126 1270 3 391 20 544 78
714 39 114 62 214 69 302 5 61 46 136 154 289 29 41 59 83 66 94 35 54 196
265 276 361 134 162 191 245 266 390 65 125 87 167 244 465 149 281 195 386
297 680 34 96 44 140 44 187 0 121 -62 223 -168 275 -64 32 -170 32 -227 0
-82 -45 -102 -70 -235 -312 -56 -102 -108 -192 -115 -200 -10 -12 -82 -140
-159 -285 -54 -100 -184 -302 -257 -400 -151 -200 -167 -221 -181 -236 -7 -8
-36 -41 -63 -74 -107 -129 -183 -214 -277 -308 -106 -106 -178 -150 -270 -162
-45 -7 -48 -8 -30 -21 11 -7 22 -25 24 -39 4 -21 1 -25 -17 -25 -12 0 -33 -9
-47 -19 l-25 -20 -44 40 c-26 23 -51 37 -61 35 -11 -2 -18 2 -18 10 0 8 6 14
13 13 24 -3 38 1 33 10 -4 5 0 12 6 14 7 3 1 6 -13 6 -32 1 -52 22 -43 45 4
10 0 18 -10 22 -9 3 -13 10 -10 15 3 5 -2 9 -10 9 -9 0 -16 6 -16 13 0 20 12
28 25 17 21 -17 34 11 19 40 -10 19 -14 20 -14 8 0 -10 -4 -18 -9 -18 -11 0
-4 144 10 210 14 71 44 165 93 295 53 142 80 265 73 338 -6 78 -45 237 -69
282 -12 22 -26 50 -32 62 -8 16 -17 21 -31 17 -16 -4 -17 -3 -5 5 12 8 11 14
-10 36 -62 66 -241 125 -383 126 -149 2 -233 -55 -307 -205 -59 -118 -79 -201
-91 -366 -10 -135 -15 -157 -67 -317 -31 -95 -60 -173 -64 -173 -4 0 -18 19
-32 43 -18 31 -27 68 -35 145 -17 156 -14 208 19 335 16 64 34 152 39 196 14
128 -12 324 -59 447 -17 47 -20 49 -52 46 -28 -2 -37 2 -47 22 -8 13 -10 29
-6 36 4 6 0 17 -9 23 -23 18 -47 70 -35 78 6 3 4 11 -6 19 -14 12 -16 12 -15
-1 4 -26 0 -39 -11 -39 -6 0 -9 9 -6 20 4 17 2 18 -14 9 -12 -6 -25 -6 -35 -1
-13 7 -9 11 20 16 46 9 46 18 -1 38 -147 64 -388 57 -490 -13 -61 -42 -127
-113 -158 -170 -33 -62 -88 -221 -110 -323 -25 -111 -16 -266 22 -401 27 -96
28 -107 27 -303 -2 -112 -4 -205 -6 -208 -5 -4 -98 34 -143 58 -47 26 -149
127 -192 193 -48 71 -99 166 -202 373 -43 88 -80 150 -85 145 -5 -4 -6 -3 -2
4 3 6 -5 36 -18 65 -13 29 -36 82 -51 118 -14 36 -34 83 -44 105 -10 22 -26
66 -35 98 -9 31 -21 57 -27 57 -6 0 -8 4 -5 9 3 5 0 21 -8 37 -7 16 -20 45
-29 64 -9 19 -17 28 -17 20 -1 -10 -4 -9 -10 5 -12 27 -12 43 0 25 5 -8 10
-10 10 -4 0 10 -35 92 -92 211 -11 24 -23 55 -27 70 -5 16 -14 27 -20 25 -7
-1 -9 2 -6 8 8 13 -35 140 -47 140 -5 0 -6 4 -3 10 3 5 -1 24 -9 42 -25 57
-146 443 -176 566 -16 64 -45 171 -65 237 -20 66 -57 198 -81 294 -25 96 -54
201 -66 235 -32 95 -98 223 -140 271 -96 109 -258 166 -383 136z m942 -1873
c-3 -8 -6 -5 -6 6 -1 11 2 17 5 13 3 -3 4 -12 1 -19z m14 -55 c-12 -20 -14
-14 -5 12 4 9 9 14 11 11 3 -2 0 -13 -6 -23z m78 -163 c11 -24 11 -24 -3 -6
-9 11 -16 24 -16 30 0 12 5 7 19 -24z m1616 -131 c-4 -5 -13 -9 -21 -9 -12 0
-12 2 -2 14 14 15 32 11 23 -5z m212 -231 c-3 -7 -5 -2 -5 12 0 14 2 19 5 13
2 -7 2 -19 0 -25z m26 -52 c-4 -15 -7 -16 -14 -5 -12 19 -11 37 1 19 7 -11 9
-2 5 30 -4 43 -4 43 5 10 5 -19 7 -43 3 -54z m-48 -38 c7 -40 19 -41 28 -3 4
15 5 13 6 -7 0 -16 6 -28 11 -28 6 0 10 -18 10 -40 0 -22 -4 -40 -10 -40 -5 0
-10 -7 -10 -15 0 -8 -4 -15 -10 -15 -10 0 -14 14 -11 38 1 8 -12 12 -39 12
-39 0 -56 -15 -24 -22 13 -3 13 -5 1 -22 -14 -19 -15 -19 -33 9 -17 26 -17 29
0 58 11 20 14 33 7 35 -14 5 -14 39 0 48 6 3 9 14 6 23 -3 14 2 16 29 13 29
-4 33 -8 39 -44z m62 -10 c-3 -8 -6 -5 -6 6 -1 11 2 17 5 13 3 -3 4 -12 1 -19z
m20 -20 c-3 -8 -6 -5 -6 6 -1 11 2 17 5 13 3 -3 4 -12 1 -19z m958 -138 c3 -5
1 -10 -4 -10 -6 0 -11 5 -11 10 0 6 2 10 4 10 3 0 8 -4 11 -10z m102 -232 c-3
-8 -6 -5 -6 6 -1 11 2 17 5 13 3 -3 4 -12 1 -19z m8 -63 c0 -25 -3 -45 -7 -45
-9 0 -10 52 -2 74 9 22 9 21 9 -29z m-25 -21 c0 -19 -4 -34 -10 -34 -5 0 -10
18 -10 41 0 24 4 38 10 34 6 -3 10 -22 10 -41z m-83 -96 c-2 -13 -4 -3 -4 22
0 25 2 35 4 23 2 -13 2 -33 0 -45z m-3527 -643 c0 -8 -9 -15 -20 -15 -11 0
-20 7 -20 15 0 8 9 15 20 15 11 0 20 -7 20 -15z m20 -75 c0 -15 -7 -20 -25
-20 -29 0 -33 15 -7 29 25 15 32 13 32 -9z m30 -23 c0 -2 -8 -13 -17 -24 -20
-22 -133 -42 -133 -23 0 5 9 10 20 10 11 0 20 4 20 9 0 6 19 14 43 19 48 11
67 14 67 9z m4603 -20 c4 3 7 1 7 -6 0 -21 -44 -8 -49 14 -3 19 -3 19 16 2 11
-9 23 -14 26 -10z m-2517 5 c11 -7 12 -69 1 -64 -4 1 -11 2 -16 2 -11 0 -24
48 -16 60 7 12 16 12 31 2z m-2221 -92 c3 -5 -1 -10 -9 -10 -9 0 -16 5 -16 10
0 6 4 10 9 10 6 0 13 -4 16 -10z m205 -92 c0 -12 -14 -9 -38 8 -33 23 -27 36
8 16 16 -9 30 -20 30 -24z m-70 -9 c0 -5 -7 -9 -15 -9 -8 0 -15 7 -15 15 0 9
6 12 15 9 8 -4 15 -10 15 -15z m138 3 c2 -7 -2 -10 -12 -6 -9 3 -16 11 -16 16
0 13 23 5 28 -10z m182 -121 c0 -12 -39 -21 -45 -11 -3 5 1 11 7 13 21 9 38 8
38 -2z m-405 -11 c3 -5 -1 -10 -9 -10 -9 0 -16 5 -16 10 0 6 4 10 9 10 6 0 13
-4 16 -10z m-2 -70 c-8 -31 -23 -34 -23 -6 0 16 6 26 14 26 9 0 12 -7 9 -20z
m37 -20 c0 -5 -2 -10 -4 -10 -3 0 -8 5 -11 10 -3 6 -1 10 4 10 6 0 11 -4 11
-10z m257 -22 c-3 -8 -6 -5 -6 6 -1 11 2 17 5 13 3 -3 4 -12 1 -19z m1777 3
c3 -5 -3 -11 -14 -14 -13 -3 -20 0 -20 9 0 15 26 19 34 5z m-1557 -38 c-3 -10
-5 -4 -5 12 0 17 2 24 5 18 2 -7 2 -21 0 -30z m3488 8 c-6 -5 -25 10 -25 20 0
5 6 4 14 -3 8 -7 12 -15 11 -17z m-3948 -103 c-3 -8 -6 -5 -6 6 -1 11 2 17 5
13 3 -3 4 -12 1 -19z m490 -70 c-3 -7 -5 -2 -5 12 0 14 2 19 5 13 2 -7 2 -19
0 -25z m3478 -188 c4 -25 12 -40 21 -40 10 0 13 -8 9 -27 -3 -16 -2 -21 1 -13
10 22 25 30 57 30 22 0 27 -4 27 -24 0 -15 -7 -26 -16 -28 -24 -4 -24 -106 0
-123 9 -7 16 -15 16 -18 0 -5 -65 -15 -125 -20 -16 -1 -40 -12 -53 -24 l-23
-22 22 -11 c20 -11 20 -13 5 -22 -29 -16 -80 -6 -86 19 -4 19 -8 20 -28 9 -33
-18 -82 -9 -82 15 0 11 6 19 13 19 6 0 4 5 -5 11 -26 15 -22 48 7 61 19 8 25
19 26 42 0 27 2 28 10 11 7 -16 8 -13 3 11 -4 23 -1 33 10 37 9 4 16 16 16 27
0 24 15 27 24 4 3 -8 10 -12 16 -9 6 4 10 -7 10 -27 l1 -33 15 28 c15 27 53
38 55 15 0 -7 6 -2 12 11 9 19 9 25 -1 29 -17 5 -15 22 3 22 11 0 15 11 15 40
0 22 4 40 9 40 5 0 12 -18 16 -40z m42 8 c-3 -7 -5 -2 -5 12 0 14 2 19 5 13 2
-7 2 -19 0 -25z m73 -35 c0 -7 -7 -13 -15 -13 -10 0 -15 10 -15 33 1 30 1 31
15 13 8 -11 15 -26 15 -33z m72 -125 c-2 -27 -8 -48 -13 -48 -13 0 -11 74 3
88 15 15 15 15 10 -40z m-65 -30 c-2 -13 -4 -3 -4 22 0 25 2 35 4 23 2 -13 2
-33 0 -45z m93 52 c0 -5 -4 -10 -10 -10 -5 0 -10 5 -10 10 0 6 5 10 10 10 6 0
10 -4 10 -10z m-454 -67 c-11 -11 -19 6 -11 24 8 17 8 17 12 0 3 -10 2 -21 -1
-24z m-5063 -110 c-11 -15 -23 -35 -26 -43 -3 -8 -6 5 -6 30 -1 33 2 41 9 30
9 -13 12 -13 21 3 6 10 13 16 16 13 3 -3 -4 -17 -14 -33z m5319 5 l-22 -22
-22 22 -22 22 44 0 44 0 -22 -22z m-5275 -123 c-2 -11 -7 4 -12 33 -6 41 -10
50 -21 41 -7 -6 -15 -25 -17 -42 -2 -18 -3 -11 -1 15 2 28 10 54 21 65 17 18
18 16 26 -37 4 -30 6 -64 4 -75z m5158 55 c-3 -5 -12 -10 -20 -10 -8 0 -17 5
-20 10 -4 6 5 10 20 10 15 0 24 -4 20 -10z m-5188 -62 c-3 -7 -5 -2 -5 12 0
14 2 19 5 13 2 -7 2 -19 0 -25z m4363 -28 c0 -5 -4 -10 -10 -10 -5 0 -10 5
-10 10 0 6 5 10 10 10 6 0 10 -4 10 -10z m83 -45 c-3 -9 -8 -14 -10 -11 -3 3
-2 9 2 15 9 16 15 13 8 -4z m-4384 -35 c0 -10 -3 -8 -9 5 -12 27 -12 43 0 25
5 -8 9 -22 9 -30z m31 -77 c0 -7 -5 -13 -11 -13 -6 0 -9 7 -5 15 3 8 1 15 -4
15 -6 0 -10 8 -10 18 1 15 2 15 15 -2 8 -11 15 -26 15 -33z m-43 -25 c-3 -8
-6 -5 -6 6 -1 11 2 17 5 13 3 -3 4 -12 1 -19z m50 -20 c-3 -8 -6 -5 -6 6 -1
11 2 17 5 13 3 -3 4 -12 1 -19z m4757 -3 c3 -8 1 -15 -4 -15 -6 0 -10 7 -10
15 0 8 2 15 4 15 2 0 6 -7 10 -15z m206 -9 c23 -17 17 -17 -27 1 -14 5 -13 2
4 -16 16 -17 28 -21 45 -16 15 4 18 3 10 -3 -7 -5 -11 -15 -9 -23 2 -8 2 -11
0 -6 -8 12 -35 8 -31 -5 6 -18 59 -22 70 -6 7 10 10 9 19 -5 6 -9 14 -15 18
-13 4 3 23 -20 41 -51 35 -57 54 -59 25 -3 -9 18 -14 35 -10 38 8 9 25 -19 25
-42 0 -14 3 -16 13 -8 8 7 17 6 30 -3 16 -11 18 -25 15 -89 -2 -61 0 -76 12
-80 8 -2 0 -4 -17 -5 -27 -1 -33 3 -33 19 0 23 -13 26 -28 7 -12 -14 1 -35 32
-52 28 -16 24 -30 -11 -33 -32 -3 -33 -4 -33 -52 0 -27 5 -52 10 -55 6 -3 10
-19 10 -35 0 -15 6 -30 13 -33 10 -4 10 -7 0 -18 -11 -11 -13 -10 -13 4 0 12
-8 17 -30 17 l-30 0 17 -34 c15 -33 31 -41 43 -24 3 4 14 -1 23 -12 16 -19 16
-20 -3 -20 -26 0 -26 -27 0 -35 11 -3 20 -13 20 -21 0 -8 5 -14 11 -14 6 0 9
-8 7 -17 -2 -10 -12 -18 -23 -18 -14 0 -21 -8 -23 -24 -3 -17 -6 -20 -12 -11
-5 8 -15 10 -26 5 -11 -4 -28 -10 -38 -12 -40 -7 -55 -64 -22 -85 7 -5 4 -12
-9 -23 -19 -14 -19 -16 -2 -29 26 -21 21 -25 -35 -28 -42 -3 -49 -5 -33 -13
11 -5 34 -19 50 -32 27 -21 30 -29 27 -69 -3 -33 -8 -44 -21 -44 -13 0 -16 -8
-13 -40 3 -25 0 -40 -7 -40 -6 0 -11 -17 -11 -40 0 -29 -4 -40 -15 -40 -11 0
-15 -11 -15 -40 0 -32 -4 -40 -18 -40 -14 0 -17 -6 -14 -33 2 -19 -4 -51 -14
-73 -16 -36 -18 -37 -22 -15 l-4 25 -19 -25 -19 -24 -20 25 c-11 14 -20 21
-20 15 -1 -12 -24 26 -25 40 0 17 -35 18 -35 1 0 -9 -4 -16 -10 -16 -5 0 -10
-5 -10 -12 0 -9 3 -9 12 0 19 19 28 14 28 -12 0 -28 15 -42 26 -24 11 18 20
-16 16 -62 -4 -39 -5 -40 -41 -40 -31 1 -38 5 -52 35 -9 19 -13 35 -8 35 5 0
9 18 9 40 0 22 -5 40 -11 40 -5 0 -7 5 -4 10 8 13 -21 13 -46 0 -11 -6 -19 -7
-19 -2 0 6 9 12 20 15 11 3 20 10 20 16 0 6 -9 11 -20 11 -11 0 -20 7 -20 15
0 19 15 19 45 -1 21 -14 30 -14 54 -4 17 6 58 10 95 8 36 -1 66 1 66 5 0 5
-42 8 -92 7 -130 -3 -138 -2 -138 14 0 18 -22 26 -52 19 -21 -6 -22 -5 -9 11
11 13 12 22 2 42 -16 36 -14 44 14 44 16 0 25 6 25 15 0 8 -4 15 -10 15 -5 0
-10 9 -10 20 0 11 5 20 10 20 6 0 10 9 10 20 0 11 -4 20 -10 20 -5 0 -10 -9
-10 -20 0 -13 -7 -20 -20 -20 -13 0 -20 -7 -20 -20 0 -11 -4 -20 -10 -20 -5 0
-10 9 -10 20 0 11 5 20 10 20 6 0 10 9 10 20 0 25 -17 26 -23 3 -4 -17 -5 -17
-6 -1 0 10 8 22 19 28 21 11 18 34 -3 27 -39 -14 -66 46 -42 92 14 27 13 30
-3 34 -9 2 8 3 38 1 l55 -4 -32 15 c-18 8 -33 17 -33 20 0 3 20 10 45 16 38
10 45 15 45 36 0 15 10 33 25 45 16 13 25 29 25 48 0 38 9 60 26 60 9 0 14 12
14 38 l0 37 -47 0 c-29 0 -47 5 -49 13 -1 7 0 8 3 2 2 -5 17 -10 31 -10 l27 0
-32 31 c-18 16 -33 34 -33 40 0 5 15 9 33 9 l32 1 -26 23 c-14 12 -29 35 -33
50 -6 23 -3 29 14 33 20 5 29 43 9 43 -5 0 -7 5 -4 10 4 6 4 19 0 28 -7 14 -9
13 -16 -8 -7 -21 -8 -19 -4 9 3 18 5 44 5 57 0 41 44 21 63 -29 5 -15 11 -16
27 -7 16 8 19 17 14 37 -7 24 -5 25 22 19 16 -4 40 -7 53 -7 16 1 22 -3 17
-14 -3 -9 0 -15 9 -15 19 0 20 44 1 59 -17 15 -80 180 -71 189 3 3 10 0 15 -8
8 -13 10 -12 10 3 0 9 7 17 15 17 8 0 15 5 15 11 0 6 -9 9 -20 6 -16 -4 -20 0
-20 22 0 15 -5 32 -12 39 -9 9 -9 12 1 12 7 0 15 -9 18 -20 4 -15 14 -20 37
-20 42 0 50 9 30 31 -15 17 -14 18 17 16 19 -1 45 -11 59 -21z m-4920 -61 c0
-5 -5 -3 -10 5 -5 8 -10 20 -10 25 0 6 5 3 10 -5 5 -8 10 -19 10 -25z m4700 9
c0 -20 -7 -17 -20 6 -9 16 -8 18 5 14 8 -4 15 -12 15 -20z m-4681 -54 c11 -24
11 -24 -3 -6 -9 11 -16 24 -16 30 0 12 5 7 19 -24z m-251 2 c2 -7 -3 -12 -12
-12 -9 0 -16 7 -16 16 0 17 22 14 28 -4z m4952 -11 c0 -33 -21 -54 -47 -49
-16 3 -16 5 5 23 12 11 22 27 22 37 0 10 5 18 10 18 6 0 10 -13 10 -29z
m-3590 -22 c0 -6 -4 -7 -10 -4 -5 3 -10 11 -10 16 0 6 5 7 10 4 6 -3 10 -11
10 -16z m3630 -71 c0 -21 5 -38 10 -38 6 0 10 -4 10 -10 0 -16 -47 -11 -54 6
-8 22 -8 99 1 108 13 13 33 -27 33 -66z m-4913 46 c-3 -3 -12 -4 -19 -1 -8 3
-5 6 6 6 11 1 17 -2 13 -5z m3743 -9 c0 -8 7 -15 15 -15 8 0 15 -7 15 -16 0
-11 -6 -15 -20 -11 -14 3 -19 0 -18 -12 1 -9 0 -27 0 -42 -2 -26 -9 -27 -99
-20 -23 2 -13 29 12 35 19 5 25 13 24 29 -5 53 1 59 59 66 6 0 12 -6 12 -14z
m-90 -60 c0 -8 -4 -15 -10 -15 -5 0 -7 7 -4 15 4 8 8 15 10 15 2 0 4 -7 4 -15z
m1160 -25 c0 -19 -31 -23 -48 -6 -15 15 -14 16 16 16 18 0 32 -5 32 -10z
m-1050 -30 c0 -16 -4 -30 -10 -30 -5 0 -10 14 -10 30 0 17 5 30 10 30 6 0 10
-13 10 -30z m1090 0 c0 -5 -7 -10 -15 -10 -8 0 -15 5 -15 10 0 6 7 10 15 10 8
0 15 -4 15 -10z m-1880 -30 c0 -5 -7 -10 -16 -10 -8 0 -12 5 -9 10 3 6 10 10
16 10 5 0 9 -4 9 -10z m775 -10 c11 -5 14 -9 7 -9 -7 -1 -28 -12 -46 -26 -39
-30 -42 -30 -64 -8 -12 12 -13 18 -4 21 6 2 12 10 12 18 0 16 61 19 95 4z
m-705 -45 c0 -8 -4 -15 -10 -15 -5 0 -10 7 -10 15 0 8 5 15 10 15 6 0 10 -7
10 -15z m-60 -15 c0 -5 -11 -10 -25 -10 -14 0 -25 5 -25 10 0 6 11 10 25 10
14 0 25 -4 25 -10z m793 -10 c-4 -16 -13 -20 -42 -19 -29 0 -32 2 -16 9 11 5
14 9 8 9 -30 2 -10 21 21 21 29 0 33 -3 29 -20z m-853 0 c0 -5 -4 -10 -10 -10
-5 0 -10 5 -10 10 0 6 5 10 10 10 6 0 10 -4 10 -10z m-40 -4 c0 -2 -7 -7 -16
-10 -8 -3 -12 -2 -9 4 6 10 25 14 25 6z m133 -21 c-3 -9 -8 -14 -10 -11 -3 3
-2 9 2 15 9 16 15 13 8 -4z m2316 -1 c11 -9 -15 -24 -45 -24 -34 0 -49 23 -21
33 11 4 57 -2 66 -9z m-1656 -8 c18 -8 40 -16 50 -20 9 -3 17 -11 17 -17 0
-17 -76 -5 -95 15 -9 9 -22 16 -28 16 -7 0 -6 4 3 10 19 12 16 12 53 -4z
m-625 -22 c-2 -9 -13 -23 -26 -32 -20 -13 -22 -13 -17 0 4 11 -3 17 -26 22
-18 3 -29 9 -26 12 3 4 20 1 37 -4 25 -9 32 -8 37 3 7 20 25 19 21 -1z m2239
-30 c-3 -3 -12 -4 -19 -1 -8 3 -5 6 6 6 11 1 17 -2 13 -5z m-1618 -20 c7 9 24
16 37 16 22 0 23 -2 12 -21 -10 -17 -10 -23 0 -26 6 -3 12 -12 13 -21 0 -11 2
-12 6 -4 8 19 31 14 38 -8 9 -29 -12 -52 -35 -40 -10 6 -32 10 -49 10 -32 0
-71 26 -71 47 0 7 5 24 12 38 10 22 13 24 18 10 5 -15 7 -16 19 -1z m-79 -18
c0 -3 -4 -8 -10 -11 -5 -3 -10 -1 -10 4 0 6 5 11 10 11 6 0 10 -2 10 -4z m120
-161 c0 -8 -6 -15 -14 -15 -17 0 -28 14 -19 24 12 12 33 6 33 -9z m140 -286
c0 -10 -4 -19 -10 -19 -5 0 -10 4 -10 9 0 5 -10 11 -22 14 -23 4 -23 4 2 14
30 13 40 8 40 -18z m1327 -51 c-3 -8 -6 -5 -6 6 -1 11 2 17 5 13 3 -3 4 -12 1
-19z m40 -24 c-3 -3 -12 -4 -19 -1 -8 3 -5 6 6 6 11 1 17 -2 13 -5z m-97 -274
c13 -9 13 -11 0 -20 -22 -15 -30 -12 -30 10 0 22 8 25 30 10z m-4950 -41 c0
-5 -7 -9 -15 -9 -15 0 -20 12 -9 23 8 8 24 -1 24 -14z m4580 -40 c0 -5 -4 -9
-10 -9 -5 0 -10 7 -10 16 0 8 5 12 10 9 6 -3 10 -10 10 -16z m-53 -21 c-3 -7
-5 -2 -5 12 0 14 2 19 5 13 2 -7 2 -19 0 -25z m420 26 c-3 -3 -12 -4 -19 -1
-8 3 -5 6 6 6 11 1 17 -2 13 -5z m-2277 -108 c0 -3 -4 -8 -10 -11 -5 -3 -10
-1 -10 4 0 6 5 11 10 11 6 0 10 -2 10 -4z m-110 -46 c0 -5 -9 -10 -21 -10 -11
0 -17 5 -14 10 3 6 13 10 21 10 8 0 14 -4 14 -10z m2055 -9 c3 -5 1 -12 -5
-16 -5 -3 -10 1 -10 9 0 18 6 21 15 7z m210 -21 c8 -13 -20 -24 -41 -16 -20 8
-9 26 16 26 10 0 22 -5 25 -10z m-221 -26 c3 -8 2 -12 -4 -9 -6 3 -10 10 -10
16 0 14 7 11 14 -7z m62 -9 c4 -17 13 -25 28 -25 20 1 20 1 2 15 -16 12 -8 14
65 12 46 0 65 -3 42 -5 -24 -2 -43 -7 -43 -13 0 -5 -11 -9 -24 -9 -14 0 -28
-4 -31 -10 -3 -5 -19 -10 -35 -10 -21 0 -29 5 -28 18 0 9 -3 25 -7 35 -5 12
-3 17 9 17 8 0 18 -11 22 -25z m94 -54 c0 -6 19 -11 42 -13 23 -2 43 -8 44
-16 1 -7 0 -8 -3 -2 -2 5 -19 10 -36 10 -44 0 -78 10 -71 21 7 12 24 11 24 0z
m-60 -32 c-10 -18 -11 -18 -28 -1 -20 19 -10 32 19 25 15 -4 16 -9 9 -24z
m110 -73 c0 -3 -4 -8 -10 -11 -5 -3 -10 -1 -10 4 0 6 5 11 10 11 6 0 10 -2 10
-4z m-2123 -72 c-3 -3 -12 -4 -19 -1 -8 3 -5 6 6 6 11 1 17 -2 13 -5z m123
-24 c0 -5 -7 -10 -15 -10 -8 0 -15 5 -15 10 0 6 7 10 15 10 8 0 15 -4 15 -10z
m-126 -24 c-3 -9 -10 -13 -16 -10 -5 3 -4 12 3 20 15 18 22 13 13 -10z m26
-25 c0 -12 -20 -25 -27 -18 -7 7 6 27 18 27 5 0 9 -4 9 -9z m130 -41 c0 -5 -4
-10 -10 -10 -5 0 -10 5 -10 10 0 6 5 10 10 10 6 0 10 -4 10 -10z m-55 -50 c-3
-5 -10 -10 -16 -10 -5 0 -9 5 -9 10 0 6 7 10 16 10 8 0 12 -4 9 -10z m1445
-250 c0 -5 -7 -10 -15 -10 -8 0 -15 -5 -15 -12 0 -6 -2 -9 -5 -6 -3 3 -3 13 1
22 7 17 34 22 34 6z m-5630 -830 c0 -17 -7 -20 -40 -20 -33 0 -40 3 -40 20 0
17 7 20 40 20 33 0 40 -3 40 -20z m-90 0 c0 -5 -13 -10 -30 -10 -17 0 -30 5
-30 10 0 6 13 10 30 10 17 0 30 -4 30 -10z m-12 -37 c-10 -2 -26 -2 -35 0 -10
3 -2 5 17 5 19 0 27 -2 18 -5z m86 -19 c25 -9 19 -24 -9 -24 -16 0 -25 6 -25
15 0 16 9 19 34 9z m71 -23 c3 -5 -9 -17 -26 -25 -35 -18 -79 -21 -79 -7 0 5
9 7 19 4 12 -3 29 4 42 16 25 23 35 26 44 12z m-175 -45 c0 -3 -4 -8 -10 -11
-5 -3 -10 -1 -10 4 0 6 5 11 10 11 6 0 10 -2 10 -4z m120 -36 c0 -5 -7 -10
-15 -10 -8 0 -15 5 -15 10 0 6 7 10 15 10 8 0 15 -4 15 -10z m240 -80 c0 -11
-4 -20 -10 -20 -5 0 -10 9 -10 20 0 11 5 20 10 20 6 0 10 -9 10 -20z m-60 -30
c0 -5 -10 -10 -22 -10 -19 0 -20 2 -8 10 19 13 30 13 30 0z m-42 -16 c27 -8
29 -24 3 -24 -11 0 -23 -4 -26 -10 -3 -5 -13 -10 -21 -10 -8 0 -14 5 -14 10 0
6 9 10 20 10 27 0 25 18 -2 23 -20 4 -20 4 -3 6 11 0 30 -2 43 -5z m22 -54 c0
-5 -4 -10 -10 -10 -5 0 -10 5 -10 10 0 6 5 10 10 10 6 0 10 -4 10 -10z m26
-101 c5 -9 -1 -10 -21 -5 -19 5 -31 3 -36 -6 -4 -7 -11 -9 -16 -5 -4 5 -1 12
7 17 21 13 57 12 66 -1z m242 -206 c-5 -25 -28 -28 -28 -4 0 12 6 21 16 21 9
0 14 -7 12 -17z m5517 -127 c9 -48 3 -81 -16 -81 -9 0 -24 -7 -33 -14 -15 -13
-18 -12 -23 7 -3 12 -9 22 -14 22 -5 0 -9 9 -9 21 0 11 -4 17 -10 14 -6 -4 -9
4 -7 17 1 18 12 26 42 34 61 17 64 16 70 -20z m-5415 -2 c0 -9 -5 -14 -12 -12
-18 6 -21 28 -4 28 9 0 16 -7 16 -16z m5477 -46 c-2 -13 -4 -3 -4 22 0 25 2
35 4 23 2 -13 2 -33 0 -45z m-67 -88 c0 -5 -4 -10 -10 -10 -5 0 -10 5 -10 10
0 6 5 10 10 10 6 0 10 -4 10 -10z m109 -108 c-1 -16 -2 -16 -6 1 -2 9 -11 17
-19 17 -8 0 -14 5 -14 10 0 7 6 7 20 0 11 -6 19 -18 19 -28z m-3839 -2 c0 -5
-9 -10 -21 -10 -11 0 -17 5 -14 10 3 6 13 10 21 10 8 0 14 -4 14 -10z m3706
-17 c-3 -3 -13 -2 -23 2 -17 7 -17 8 2 15 19 7 34 -5 21 -17z m110 -68 c-10
-30 -20 -55 -22 -55 -6 0 7 62 19 92 19 46 21 21 3 -37z m-5336 31 c0 -2 -13
-6 -29 -8 -17 -2 -28 -1 -25 4 5 8 54 12 54 4z m5230 -6 c0 -5 -9 -10 -20 -10
-11 0 -20 5 -20 10 0 6 9 10 20 10 11 0 20 -4 20 -10z m-5193 -76 c-3 -3 -12
-4 -19 -1 -8 3 -5 6 6 6 11 1 17 -2 13 -5z m5300 -86 c-2 -18 -4 -6 -4 27 0
33 2 48 4 33 2 -15 2 -42 0 -60z m20 -20 c-3 -8 -6 -5 -6 6 -1 11 2 17 5 13 3
-3 4 -12 1 -19z m-3997 -43 c0 -8 -7 -15 -16 -15 -14 0 -14 3 -4 15 7 8 14 15
16 15 2 0 4 -7 4 -15z m3977 -42 c-3 -10 -5 -4 -5 12 0 17 2 24 5 18 2 -7 2
-21 0 -30z m-5082 -43 c8 -13 -20 -24 -41 -16 -20 8 -9 26 16 26 10 0 22 -5
25 -10z m3735 -86 c0 -2 -9 -4 -20 -4 -11 0 -20 4 -20 9 0 5 9 7 20 4 11 -3
20 -7 20 -9z m-3747 -1 c-7 -2 -19 -2 -25 0 -7 3 -2 5 12 5 14 0 19 -2 13 -5z
m47 -33 c0 -5 -4 -10 -10 -10 -5 0 -10 5 -10 10 0 6 5 10 10 10 6 0 10 -4 10
-10z m13 -47 c-7 -2 -19 -2 -25 0 -7 3 -2 5 12 5 14 0 19 -2 13 -5z m230 -106
c-4 -29 -12 -57 -18 -64 -10 -9 -11 -2 -7 33 5 44 4 45 -22 40 -14 -4 -37 -8
-49 -11 -13 -2 -32 2 -43 10 -19 15 -19 15 0 30 11 9 40 15 68 15 29 0 48 4
48 11 0 8 4 8 14 -1 11 -8 13 -25 9 -63z m537 13 c0 -30 -13 -40 -25 -20 -8
13 4 50 16 50 5 0 9 -13 9 -30z m77 4 c-3 -3 -12 -4 -19 -1 -8 3 -5 6 6 6 11
1 17 -2 13 -5z m-615 -186 c-9 -9 -12 -7 -12 12 0 19 3 21 12 12 9 -9 9 -15 0
-24z m48 10 c0 -16 -3 -19 -11 -11 -6 6 -8 16 -5 22 11 17 16 13 16 -11z m330
12 c0 -5 -7 -10 -15 -10 -8 0 -15 5 -15 10 0 6 7 10 15 10 8 0 15 -4 15 -10z
m-155 -87 c-5 -69 -5 -69 -15 -53 -14 21 -12 67 3 73 6 3 12 6 13 6 1 1 0 -11
-1 -26z"/>
<path d="M5136 8741 c-4 -7 -5 -15 -2 -18 9 -9 19 4 14 18 -4 11 -6 11 -12 0z"/>
<path d="M6408 5843 c7 -3 16 -2 19 1 4 3 -2 6 -13 5 -11 0 -14 -3 -6 -6z"/>
<path d="M6480 5800 c0 -5 5 -10 11 -10 5 0 7 5 4 10 -3 6 -8 10 -11 10 -2 0
-4 -4 -4 -10z"/>
<path d="M6531 5794 c0 -11 3 -14 6 -6 3 7 2 16 -1 19 -3 4 -6 -2 -5 -13z"/>
<path d="M6320 5790 c0 -5 7 -10 15 -10 8 0 15 5 15 10 0 6 -7 10 -15 10 -8 0
-15 -4 -15 -10z"/>
<path d="M6490 5771 c0 -5 7 -14 15 -21 16 -14 18 -10 9 14 -6 17 -24 22 -24
7z"/>
<path d="M6305 5570 c-4 -6 -3 -16 3 -22 6 -6 12 -6 17 2 4 6 3 16 -3 22 -6 6
-12 6 -17 -2z"/>
<path d="M6380 5567 c0 -15 29 -57 30 -42 0 6 -3 20 -6 33 -7 24 -24 31 -24 9z"/>
<path d="M6220 5450 c-13 -8 -12 -10 3 -10 9 0 17 5 17 10 0 12 -1 12 -20 0z"/>
<path d="M6240 5339 c0 -11 5 -17 10 -14 6 3 10 13 10 21 0 8 -4 14 -10 14 -5
0 -10 -9 -10 -21z"/>
<path d="M6440 5320 c0 -5 5 -10 10 -10 6 0 10 5 10 10 0 6 -4 10 -10 10 -5 0
-10 -4 -10 -10z"/>
<path d="M6262 5140 c0 -14 2 -19 5 -12 2 6 2 18 0 25 -3 6 -5 1 -5 -13z"/>
<path d="M6307 5137 c-4 -10 3 -17 21 -20 26 -5 46 9 36 25 -8 13 -34 9 -34
-4 0 -10 -2 -10 -9 0 -7 11 -9 11 -14 -1z"/>
<path d="M6265 5100 c-3 -5 3 -10 15 -10 12 0 18 5 15 10 -3 6 -10 10 -15 10
-5 0 -12 -4 -15 -10z"/>
<path d="M6178 5033 c7 -3 16 -2 19 1 4 3 -2 6 -13 5 -11 0 -14 -3 -6 -6z"/>
<path d="M6454 5006 c-4 -10 -2 -22 4 -28 8 -8 13 -7 18 6 4 10 2 22 -4 28 -8
8 -13 7 -18 -6z"/>
<path d="M6198 4983 c7 -3 16 -2 19 1 4 3 -2 6 -13 5 -11 0 -14 -3 -6 -6z"/>
<path d="M6137 4913 c-14 -13 -6 -33 13 -33 26 0 25 -14 -1 -39 l-21 -19 20
-11 c34 -18 42 -13 35 21 -4 22 -3 29 5 24 7 -4 12 -14 12 -22 0 -8 6 -14 14
-14 8 0 18 -9 21 -20 7 -21 25 -28 25 -10 0 6 -4 10 -9 10 -5 0 -12 14 -16 30
-4 17 -12 30 -19 30 -6 0 -20 14 -29 30 -17 29 -36 38 -50 23z"/>
<path d="M6420 4716 c0 -2 6 -9 14 -15 10 -9 16 -8 26 4 11 13 8 15 -14 15
-14 0 -26 -2 -26 -4z"/>
<path d="M6225 4570 c-3 -5 -1 -10 4 -10 6 0 11 5 11 10 0 6 -2 10 -4 10 -3 0
-8 -4 -11 -10z"/>
<path d="M6338 4480 c13 -6 31 -6 45 0 18 7 14 9 -23 9 -37 0 -41 -2 -22 -9z"/>
<path d="M6083 2040 c0 -25 2 -35 4 -22 2 12 2 32 0 45 -2 12 -4 2 -4 -23z"/>
<path d="M1812 8488 c6 -18 28 -21 28 -4 0 9 -7 16 -16 16 -9 0 -14 -5 -12
-12z"/>
<path d="M1650 8390 c0 -5 5 -10 10 -10 6 0 10 5 10 10 0 6 -4 10 -10 10 -5 0
-10 -4 -10 -10z"/>
<path d="M2060 8350 c0 -5 5 -10 10 -10 6 0 10 5 10 10 0 6 -4 10 -10 10 -5 0
-10 -4 -10 -10z"/>
<path d="M1558 8243 c7 -3 16 -2 19 1 4 3 -2 6 -13 5 -11 0 -14 -3 -6 -6z"/>
<path d="M2387 8153 c-10 -9 -9 -23 2 -23 5 0 11 7 15 15 5 15 -5 20 -17 8z"/>
<path d="M2210 8090 c0 -5 3 -10 8 -11 4 0 17 -2 29 -3 12 -1 20 1 17 6 -4 5
-12 7 -20 4 -8 -3 -14 -1 -14 4 0 6 -4 10 -10 10 -5 0 -10 -4 -10 -10z"/>
<path d="M1440 8076 c0 -9 7 -16 16 -16 17 0 14 22 -4 28 -7 2 -12 -3 -12 -12z"/>
<path d="M2450 7978 c0 -15 -3 -33 -6 -41 -4 -11 1 -15 19 -13 22 1 23 4 16
30 -12 43 -29 56 -29 24z"/>
<path d="M2613 7863 c21 -3 27 -10 27 -29 0 -27 17 -32 27 -8 8 22 -23 44 -56
43 -26 -2 -26 -2 2 -6z"/>
<path d="M2542 7845 c-20 -10 -21 -13 -7 -19 9 -3 26 -6 38 -5 21 0 21 1 2 9
-18 8 -18 9 -2 9 10 1 15 6 12 11 -8 12 -14 12 -43 -5z"/>
<path d="M2458 7813 c7 -3 16 -2 19 1 4 3 -2 6 -13 5 -11 0 -14 -3 -6 -6z"/>
<path d="M2590 7791 c-19 -4 -44 -13 -55 -20 -17 -10 -15 -11 20 -6 22 4 51
13 65 20 27 15 23 16 -30 6z"/>
<path d="M2408 7783 c7 -3 16 -2 19 1 4 3 -2 6 -13 5 -11 0 -14 -3 -6 -6z"/>
<path d="M2598 7753 c7 -3 16 -2 19 1 4 3 -2 6 -13 5 -11 0 -14 -3 -6 -6z"/>
<path d="M2640 7750 c0 -5 5 -10 10 -10 6 0 10 5 10 10 0 6 -4 10 -10 10 -5 0
-10 -4 -10 -10z"/>
<path d="M2693 7743 c-20 -8 -15 -23 7 -23 11 0 20 7 20 15 0 15 -6 17 -27 8z"/>
<path d="M940 7711 c0 -11 26 -22 34 -14 12 12 5 23 -14 23 -11 0 -20 -4 -20
-9z"/>
<path d="M6472 7700 c0 -8 3 -24 7 -34 7 -18 8 -18 14 -3 3 9 2 17 -3 17 -5 0
-11 8 -13 18 -3 11 -5 12 -5 2z"/>
<path d="M2449 7693 c-1 -5 -1 -11 0 -15 0 -5 -5 -8 -13 -8 -18 0 -46 -27 -46
-43 0 -8 3 -8 9 1 5 9 35 14 97 15 75 1 95 -2 129 -21 48 -27 55 -27 48 -3 -3
10 0 22 7 26 8 5 8 10 0 21 -8 9 -26 12 -58 9 -26 -3 -41 -3 -34 1 6 3 12 10
12 15 0 14 -38 11 -42 -3 -4 -10 -10 -10 -32 0 -30 13 -75 16 -77 5z"/>
<path d="M2670 7691 c0 -9 41 -23 48 -16 2 2 1 8 -3 14 -8 13 -45 15 -45 2z"/>
<path d="M6318 7644 c-15 -14 6 -34 36 -33 30 0 31 0 6 10 -13 6 -27 14 -30
20 -4 5 -9 7 -12 3z"/>
<path d="M2711 7611 c13 -36 49 -59 63 -39 6 8 20 18 30 21 32 12 -3 38 -57
41 -45 4 -45 3 -36 -23z m62 -8 c-7 -2 -21 -2 -30 0 -10 3 -4 5 12 5 17 0 24
-2 18 -5z"/>
<path d="M2493 7623 c-7 -2 -13 -9 -13 -14 0 -5 9 -4 20 3 16 10 24 10 40 0
11 -6 25 -12 32 -12 7 1 2 7 -12 15 -26 15 -46 17 -67 8z"/>
<path d="M6320 7573 c0 -7 -11 -13 -25 -15 -37 -4 -36 -22 1 -26 34 -3 54 22
34 42 -7 7 -10 6 -10 -1z"/>
<path d="M6216 7522 c-9 -15 45 -23 79 -12 28 9 27 10 -12 6 -22 -2 -46 1 -51
6 -6 6 -12 6 -16 0z"/>
<path d="M2495 7508 c-67 -11 -70 -12 -60 -28 5 -8 14 -6 32 6 17 11 37 14 59
11 25 -4 34 -2 34 9 0 8 -1 13 -2 13 -2 -1 -30 -6 -63 -11z"/>
<path d="M6210 7464 c0 -22 2 -25 15 -14 12 10 13 16 4 26 -16 20 -19 18 -19
-12z"/>
<path d="M6275 7473 c-18 -14 -18 -15 -2 -9 10 3 25 6 33 6 8 0 14 5 14 10 0
15 -22 12 -45 -7z"/>
<path d="M2480 7439 c0 -5 5 -7 10 -4 6 3 10 8 10 11 0 2 -4 4 -10 4 -5 0 -10
-5 -10 -11z"/>
<path d="M2831 7436 c12 -10 79 -16 79 -6 0 5 -19 10 -42 10 -23 0 -39 -2 -37
-4z"/>
<path d="M6231 7408 c0 -28 2 -30 9 -13 12 28 12 45 0 45 -5 0 -10 -15 -9 -32z"/>
<path d="M6290 7430 c0 -5 4 -10 9 -10 6 0 13 5 16 10 3 6 -1 10 -9 10 -9 0
-16 -4 -16 -10z"/>
<path d="M6238 7278 c3 -13 13 -18 36 -17 19 1 24 3 12 6 -14 4 -15 7 -6 13 8
5 1 9 -18 12 -24 3 -28 1 -24 -14z"/>
<path d="M2530 7230 c0 -5 7 -10 15 -10 8 0 15 5 15 10 0 6 -7 10 -15 10 -8 0
-15 -4 -15 -10z"/>
<path d="M2468 7193 c7 -3 16 -2 19 1 4 3 -2 6 -13 5 -11 0 -14 -3 -6 -6z"/>
<path d="M3040 7190 c0 -5 9 -10 20 -10 11 0 20 5 20 10 0 6 -9 10 -20 10 -11
0 -20 -4 -20 -10z"/>
<path d="M3152 7125 c0 -16 2 -22 5 -12 2 9 2 23 0 30 -3 6 -5 -1 -5 -18z"/>
<path d="M3132 7060 c0 -14 2 -19 5 -12 2 6 2 18 0 25 -3 6 -5 1 -5 -13z"/>
<path d="M2615 6790 c3 -5 10 -10 16 -10 5 0 9 5 9 10 0 6 -7 10 -16 10 -8 0
-12 -4 -9 -10z"/>
<path d="M1235 6330 c-3 -5 1 -10 10 -10 9 0 13 5 10 10 -3 6 -8 10 -10 10 -2
0 -7 -4 -10 -10z"/>
<path d="M2605 6239 c-4 -6 -5 -12 -2 -15 2 -3 7 2 10 11 7 17 1 20 -8 4z"/>
<path d="M1240 6190 c0 -4 7 -11 16 -14 22 -8 24 -8 24 7 0 7 -9 13 -20 14
-11 1 -20 -2 -20 -7z"/>
<path d="M2605 5999 c-4 -6 -5 -12 -2 -15 2 -3 7 2 10 11 7 17 1 20 -8 4z"/>
<path d="M1265 5570 c3 -5 8 -10 11 -10 2 0 4 5 4 10 0 6 -5 10 -11 10 -5 0
-7 -4 -4 -10z"/>
<path d="M1346 5331 c-4 -7 -5 -15 -2 -18 9 -9 19 4 14 18 -4 11 -6 11 -12 0z"/>
<path d="M1440 4920 c0 -13 5 -20 13 -17 6 2 12 10 12 17 0 7 -6 15 -12 18 -8
2 -13 -5 -13 -18z"/>
<path d="M0 3669 c0 -5 5 -7 10 -4 5 3 10 8 10 11 0 2 -4 4 -10 4 -5 0 -10 -5
-10 -11z"/>
<path d="M0 3604 c0 -22 2 -25 15 -14 12 10 13 16 4 26 -16 20 -19 18 -19 -12z"/>
<path d="M130 3600 c19 -13 30 -13 30 0 0 6 -10 10 -22 10 -19 0 -20 -2 -8
-10z"/>
<path d="M71 3576 c-18 -22 -4 -40 16 -20 10 10 12 19 6 25 -6 6 -14 5 -22 -5z"/>
<path d="M0 3530 c0 -5 5 -10 11 -10 5 0 7 5 4 10 -3 6 -8 10 -11 10 -2 0 -4
-4 -4 -10z"/>
<path d="M0 3480 c0 -22 8 -25 30 -10 13 9 13 11 0 20 -22 15 -30 12 -30 -10z"/>
<path d="M0 3400 c0 -5 7 -10 15 -10 8 0 15 5 15 10 0 6 -7 10 -15 10 -8 0
-15 -4 -15 -10z"/>
<path d="M12 3363 c22 -6 23 -26 3 -43 -21 -18 -19 -40 5 -40 14 0 22 10 29
37 11 41 3 54 -34 52 -17 -1 -17 -2 -3 -6z"/>
<path d="M190 3280 c18 -12 47 -13 53 -2 3 4 -11 8 -31 9 -27 2 -33 0 -22 -7z"/>
<path d="M0 3256 c0 -9 7 -16 16 -16 9 0 14 5 12 12 -6 18 -28 21 -28 4z"/>
<path d="M180 3240 c0 -5 14 -10 30 -10 17 0 30 5 30 10 0 6 -13 10 -30 10
-16 0 -30 -4 -30 -10z"/>
<path d="M17 3219 c-9 -6 -17 -20 -17 -31 0 -20 1 -20 12 -6 7 9 24 18 38 20
24 3 24 4 5 15 -14 7 -26 8 -38 2z"/>
<path d="M140 3185 c0 -8 5 -15 10 -15 6 0 10 7 10 15 0 8 -4 15 -10 15 -5 0
-10 -7 -10 -15z"/>
<path d="M68 3138 c-5 -12 -18 -18 -38 -18 -28 0 -30 -2 -30 -40 0 -22 3 -40
8 -40 4 0 22 14 40 31 25 22 32 37 30 57 -2 22 -4 24 -10 10z"/>
<path d="M138 3113 c7 -3 16 -2 19 1 4 3 -2 6 -13 5 -11 0 -14 -3 -6 -6z"/>
<path d="M2453 3105 c-15 -17 -17 -35 -3 -35 9 0 30 31 30 44 0 11 -15 6 -27
-9z"/>
<path d="M80 3070 c0 -5 7 -10 15 -10 8 0 15 5 15 10 0 6 -7 10 -15 10 -8 0
-15 -4 -15 -10z"/>
<path d="M68 3029 c-22 -12 -24 -39 -3 -39 8 0 15 7 15 15 0 11 11 15 40 15
22 0 40 5 40 10 0 13 -70 12 -92 -1z"/>
<path d="M0 2970 c0 -5 9 -10 21 -10 11 0 17 5 14 10 -3 6 -13 10 -21 10 -8 0
-14 -4 -14 -10z"/>
<path d="M80 2965 c0 -11 -11 -15 -40 -15 -38 0 -40 -2 -40 -30 0 -28 3 -30
36 -30 27 0 44 8 72 35 20 19 40 35 45 35 4 0 7 5 7 10 0 6 -18 10 -40 10 -29
0 -40 -4 -40 -15z"/>
<path d="M178 2953 c-10 -2 -18 -9 -18 -14 0 -13 27 -11 36 2 3 6 17 9 30 6
13 -2 24 0 24 4 0 9 -41 10 -72 2z"/>
<path d="M478 2535 c5 -27 16 -25 32 6 9 16 7 19 -13 19 -20 0 -23 -4 -19 -25z"/>
<path d="M450 2465 c0 -8 7 -15 15 -15 8 0 15 7 15 15 0 8 -7 15 -15 15 -8 0
-15 -7 -15 -15z"/>
<path d="M660 2170 c0 -5 5 -10 10 -10 6 0 10 5 10 10 0 6 -4 10 -10 10 -5 0
-10 -4 -10 -10z"/>
<path d="M770 1950 c0 -5 7 -10 15 -10 8 0 15 5 15 10 0 6 -7 10 -15 10 -8 0
-15 -4 -15 -10z"/>
<path d="M780 1881 c0 -35 3 -40 31 -50 40 -14 69 -14 69 -1 0 6 -11 10 -25
10 -22 0 -25 4 -25 40 0 36 -2 40 -25 40 -22 0 -25 -4 -25 -39z"/>
<path d="M917 1822 c-24 -26 -21 -32 13 -32 22 0 30 -5 30 -17 1 -17 2 -17 15
1 12 16 12 21 -3 42 -21 28 -34 30 -55 6z"/>
<path d="M2270 1770 c0 -5 5 -10 11 -10 5 0 7 5 4 10 -3 6 -8 10 -11 10 -2 0
-4 -4 -4 -10z"/>
<path d="M2048 1453 c6 -2 18 -2 25 0 6 3 1 5 -13 5 -14 0 -19 -2 -12 -5z"/>
<path d="M1280 1415 c0 -17 2 -18 24 -9 18 7 12 24 -10 24 -8 0 -14 -7 -14
-15z"/>
<path d="M1345 1360 c3 -5 8 -10 11 -10 2 0 4 5 4 10 0 6 -5 10 -11 10 -5 0
-7 -4 -4 -10z"/>
<path d="M2050 1356 c0 -2 7 -6 15 -10 8 -3 15 -1 15 4 0 6 -7 10 -15 10 -8 0
-15 -2 -15 -4z"/>
<path d="M1440 1325 c0 -8 5 -15 10 -15 6 0 10 7 10 15 0 8 -4 15 -10 15 -5 0
-10 -7 -10 -15z"/>
<path d="M1500 1315 c0 -8 5 -15 10 -15 6 0 10 7 10 15 0 8 -4 15 -10 15 -5 0
-10 -7 -10 -15z"/>
<path d="M1778 1145 c-4 -19 -1 -25 12 -25 13 0 17 6 13 20 -8 31 -20 33 -25
5z"/>
<path d="M1680 1070 c0 -5 18 -10 40 -10 22 0 40 5 40 10 0 6 -18 10 -40 10
-22 0 -40 -4 -40 -10z"/>
<path d="M1627 1064 c-13 -13 -7 -24 14 -24 11 0 19 5 17 12 -5 14 -22 21 -31
12z"/>
</g>
</svg>
