<!--?xml version="1.0" standalone="no"?-->
              <svg id="sw-js-blob-svg" viewBox="0 0 100 100" xmlns="http://www.w3.org/2000/svg" version="1.1">
                    <defs> 
                        <linearGradient id="sw-gradient" x1="0" x2="1" y1="1" y2="0">
                            <stop id="stop1" stop-color="rgba(247, 175, 36, 1)" offset="0%"></stop>
                            <stop id="stop2" stop-color="rgba(247, 175, 36, 1)" offset="100%"></stop>
                        </linearGradient>
                    </defs>
                <path fill="none" d="M16.6,-27.8C22.8,-25.1,30,-23.3,33.6,-18.8C37.2,-14.3,37.3,-7.1,35.6,-1C34,5.2,30.6,10.5,26.4,14C22.3,17.6,17.3,19.6,12.8,23.3C8.3,27,4.1,32.5,-0.3,33C-4.7,33.4,-9.3,28.8,-14.6,25.5C-19.8,22.2,-25.6,20.2,-30.2,16.1C-34.8,12.1,-38.2,6.1,-35.2,1.7C-32.2,-2.6,-22.8,-5.2,-19.1,-10.7C-15.4,-16.3,-17.3,-24.9,-15.1,-29.9C-12.9,-34.8,-6.4,-36.2,-0.6,-35.1C5.2,-34.1,10.4,-30.5,16.6,-27.8Z" width="100%" height="100%" transform="translate(50 50)" stroke-width="1" style="transition: all 0.3s ease 0s;" stroke="url(#sw-gradient)"></path>
              </svg>