<?xml version="1.0" standalone="no"?>
<svg xmlns:xlink="http://www.w3.org/1999/xlink" id="wave" style="transform:rotate(0deg); transition: 0.3s" viewBox="0 0 1440 230" version="1.1" xmlns="http://www.w3.org/2000/svg"><defs><linearGradient id="sw-gradient-0" x1="0" x2="0" y1="0" y2="0"><stop stop-color="rgba(45, 45, 45, 1)" offset="0%"/><stop stop-color="rgba(45, 45, 45, 1)" offset="100%"/></linearGradient></defs><path style="transform:translate(0, 0px); opacity:1" fill="url(#sw-gradient-0)" d="M0,92L24,107.3C48,123,96,153,144,172.5C192,192,240,199,288,168.7C336,138,384,69,432,65.2C480,61,528,123,576,138C624,153,672,123,720,126.5C768,130,816,169,864,164.8C912,161,960,115,1008,80.5C1056,46,1104,23,1152,38.3C1200,54,1248,107,1296,126.5C1344,146,1392,130,1440,130.3C1488,130,1536,146,1584,145.7C1632,146,1680,130,1728,103.5C1776,77,1824,38,1872,42.2C1920,46,1968,92,2016,115C2064,138,2112,138,2160,145.7C2208,153,2256,169,2304,145.7C2352,123,2400,61,2448,34.5C2496,8,2544,15,2592,46C2640,77,2688,130,2736,141.8C2784,153,2832,123,2880,115C2928,107,2976,123,3024,134.2C3072,146,3120,153,3168,161C3216,169,3264,176,3312,176.3C3360,176,3408,169,3432,164.8L3456,161L3456,230L3432,230C3408,230,3360,230,3312,230C3264,230,3216,230,3168,230C3120,230,3072,230,3024,230C2976,230,2928,230,2880,230C2832,230,2784,230,2736,230C2688,230,2640,230,2592,230C2544,230,2496,230,2448,230C2400,230,2352,230,2304,230C2256,230,2208,230,2160,230C2112,230,2064,230,2016,230C1968,230,1920,230,1872,230C1824,230,1776,230,1728,230C1680,230,1632,230,1584,230C1536,230,1488,230,1440,230C1392,230,1344,230,1296,230C1248,230,1200,230,1152,230C1104,230,1056,230,1008,230C960,230,912,230,864,230C816,230,768,230,720,230C672,230,624,230,576,230C528,230,480,230,432,230C384,230,336,230,288,230C240,230,192,230,144,230C96,230,48,230,24,230L0,230Z"/></svg>