<?xml version="1.0" standalone="no"?>
<svg xmlns:xlink="http://www.w3.org/1999/xlink" id="wave" style="transform:rotate(0deg); transition: 0.3s" viewBox="0 0 1440 200" version="1.1" xmlns="http://www.w3.org/2000/svg"><defs><linearGradient id="sw-gradient-0" x1="0" x2="0" y1="1" y2="0"><stop stop-color="rgba(247, 175, 36, 1)" offset="0%"/><stop stop-color="rgba(247, 175, 36, 1)" offset="100%"/></linearGradient></defs><path style="transform:translate(0, 0px); opacity:1" fill="url(#sw-gradient-0)" d="M0,160L18.5,143.3C36.9,127,74,93,111,90C147.7,87,185,113,222,120C258.5,127,295,113,332,90C369.2,67,406,33,443,20C480,7,517,13,554,33.3C590.8,53,628,87,665,106.7C701.5,127,738,133,775,120C812.3,107,849,73,886,73.3C923.1,73,960,107,997,126.7C1033.8,147,1071,153,1108,140C1144.6,127,1182,93,1218,73.3C1255.4,53,1292,47,1329,60C1366.2,73,1403,107,1440,123.3C1476.9,140,1514,140,1551,123.3C1587.7,107,1625,73,1662,70C1698.5,67,1735,93,1772,90C1809.2,87,1846,53,1883,33.3C1920,13,1957,7,1994,13.3C2030.8,20,2068,40,2105,53.3C2141.5,67,2178,73,2215,93.3C2252.3,113,2289,147,2326,156.7C2363.1,167,2400,153,2437,143.3C2473.8,133,2511,127,2548,126.7C2584.6,127,2622,133,2640,136.7L2658.5,140L2658.5,200L2640,200C2621.5,200,2585,200,2548,200C2510.8,200,2474,200,2437,200C2400,200,2363,200,2326,200C2289.2,200,2252,200,2215,200C2178.5,200,2142,200,2105,200C2067.7,200,2031,200,1994,200C1956.9,200,1920,200,1883,200C1846.2,200,1809,200,1772,200C1735.4,200,1698,200,1662,200C1624.6,200,1588,200,1551,200C1513.8,200,1477,200,1440,200C1403.1,200,1366,200,1329,200C1292.3,200,1255,200,1218,200C1181.5,200,1145,200,1108,200C1070.8,200,1034,200,997,200C960,200,923,200,886,200C849.2,200,812,200,775,200C738.5,200,702,200,665,200C627.7,200,591,200,554,200C516.9,200,480,200,443,200C406.2,200,369,200,332,200C295.4,200,258,200,222,200C184.6,200,148,200,111,200C73.8,200,37,200,18,200L0,200Z"/></svg>