<?xml version="1.0" standalone="no"?>
<svg xmlns:xlink="http://www.w3.org/1999/xlink" id="wave" style="transform:rotate(0deg); transition: 0.3s" viewBox="0 0 1440 490" version="1.1" xmlns="http://www.w3.org/2000/svg"><defs><linearGradient id="sw-gradient-0" x1="0" x2="0" y1="1" y2="0"><stop stop-color="rgba(247, 175, 36, 1)" offset="0%"/><stop stop-color="rgba(245, 135, 9, 1)" offset="100%"/></linearGradient></defs><path style="transform:translate(0, 0px); opacity:1" fill="url(#sw-gradient-0)" d="M0,196L21.8,212.3C43.6,229,87,261,131,261.3C174.5,261,218,229,262,187.8C305.5,147,349,98,393,89.8C436.4,82,480,114,524,147C567.3,180,611,212,655,212.3C698.2,212,742,180,785,187.8C829.1,196,873,245,916,228.7C960,212,1004,131,1047,81.7C1090.9,33,1135,16,1178,24.5C1221.8,33,1265,65,1309,98C1352.7,131,1396,163,1440,204.2C1483.6,245,1527,294,1571,318.5C1614.5,343,1658,343,1702,334.8C1745.5,327,1789,310,1833,302.2C1876.4,294,1920,294,1964,261.3C2007.3,229,2051,163,2095,130.7C2138.2,98,2182,98,2225,122.5C2269.1,147,2313,196,2356,236.8C2400,278,2444,310,2487,326.7C2530.9,343,2575,343,2618,302.2C2661.8,261,2705,180,2749,138.8C2792.7,98,2836,98,2880,114.3C2923.6,131,2967,163,3011,220.5C3054.5,278,3098,359,3120,400.2L3141.8,441L3141.8,490L3120,490C3098.2,490,3055,490,3011,490C2967.3,490,2924,490,2880,490C2836.4,490,2793,490,2749,490C2705.5,490,2662,490,2618,490C2574.5,490,2531,490,2487,490C2443.6,490,2400,490,2356,490C2312.7,490,2269,490,2225,490C2181.8,490,2138,490,2095,490C2050.9,490,2007,490,1964,490C1920,490,1876,490,1833,490C1789.1,490,1745,490,1702,490C1658.2,490,1615,490,1571,490C1527.3,490,1484,490,1440,490C1396.4,490,1353,490,1309,490C1265.5,490,1222,490,1178,490C1134.5,490,1091,490,1047,490C1003.6,490,960,490,916,490C872.7,490,829,490,785,490C741.8,490,698,490,655,490C610.9,490,567,490,524,490C480,490,436,490,393,490C349.1,490,305,490,262,490C218.2,490,175,490,131,490C87.3,490,44,490,22,490L0,490Z"/></svg>