<?xml version="1.0" standalone="no"?>
<svg xmlns:xlink="http://www.w3.org/1999/xlink" id="wave" style="transform:rotate(0deg); transition: 0.3s" viewBox="0 0 1440 490" version="1.1" xmlns="http://www.w3.org/2000/svg"><defs><linearGradient id="sw-gradient-0" x1="0" x2="0" y1="1" y2="0"><stop stop-color="rgba(0, 193, 236, 1)" offset="0%"/><stop stop-color="rgba(6, 116, 241, 1)" offset="100%"/></linearGradient></defs><path style="transform:translate(0, 0px); opacity:1" fill="url(#sw-gradient-0)" d="M0,0L60,40.8C120,82,240,163,360,204.2C480,245,600,245,720,277.7C840,310,960,376,1080,351.2C1200,327,1320,212,1440,187.8C1560,163,1680,229,1800,269.5C1920,310,2040,327,2160,343C2280,359,2400,376,2520,334.8C2640,294,2760,196,2880,204.2C3000,212,3120,327,3240,318.5C3360,310,3480,180,3600,138.8C3720,98,3840,147,3960,155.2C4080,163,4200,131,4320,122.5C4440,114,4560,131,4680,147C4800,163,4920,180,5040,163.3C5160,147,5280,98,5400,106.2C5520,114,5640,180,5760,245C5880,310,6000,376,6120,375.7C6240,376,6360,310,6480,269.5C6600,229,6720,212,6840,220.5C6960,229,7080,261,7200,253.2C7320,245,7440,196,7560,155.2C7680,114,7800,82,7920,130.7C8040,180,8160,310,8280,302.2C8400,294,8520,147,8580,73.5L8640,0L8640,490L8580,490C8520,490,8400,490,8280,490C8160,490,8040,490,7920,490C7800,490,7680,490,7560,490C7440,490,7320,490,7200,490C7080,490,6960,490,6840,490C6720,490,6600,490,6480,490C6360,490,6240,490,6120,490C6000,490,5880,490,5760,490C5640,490,5520,490,5400,490C5280,490,5160,490,5040,490C4920,490,4800,490,4680,490C4560,490,4440,490,4320,490C4200,490,4080,490,3960,490C3840,490,3720,490,3600,490C3480,490,3360,490,3240,490C3120,490,3000,490,2880,490C2760,490,2640,490,2520,490C2400,490,2280,490,2160,490C2040,490,1920,490,1800,490C1680,490,1560,490,1440,490C1320,490,1200,490,1080,490C960,490,840,490,720,490C600,490,480,490,360,490C240,490,120,490,60,490L0,490Z"/><defs><linearGradient id="sw-gradient-1" x1="0" x2="0" y1="1" y2="0"><stop stop-color="rgba(247, 175, 36, 1)" offset="0%"/><stop stop-color="rgba(245, 135, 9, 1)" offset="100%"/></linearGradient></defs><path style="transform:translate(0, 50px); opacity:0.9" fill="url(#sw-gradient-1)" d="M0,98L60,81.7C120,65,240,33,360,73.5C480,114,600,229,720,253.2C840,278,960,212,1080,187.8C1200,163,1320,180,1440,212.3C1560,245,1680,294,1800,302.2C1920,310,2040,278,2160,277.7C2280,278,2400,310,2520,334.8C2640,359,2760,376,2880,343C3000,310,3120,229,3240,236.8C3360,245,3480,343,3600,367.5C3720,392,3840,343,3960,285.8C4080,229,4200,163,4320,138.8C4440,114,4560,131,4680,163.3C4800,196,4920,245,5040,269.5C5160,294,5280,294,5400,245C5520,196,5640,98,5760,73.5C5880,49,6000,98,6120,138.8C6240,180,6360,212,6480,261.3C6600,310,6720,376,6840,351.2C6960,327,7080,212,7200,147C7320,82,7440,65,7560,57.2C7680,49,7800,49,7920,114.3C8040,180,8160,310,8280,318.5C8400,327,8520,212,8580,155.2L8640,98L8640,490L8580,490C8520,490,8400,490,8280,490C8160,490,8040,490,7920,490C7800,490,7680,490,7560,490C7440,490,7320,490,7200,490C7080,490,6960,490,6840,490C6720,490,6600,490,6480,490C6360,490,6240,490,6120,490C6000,490,5880,490,5760,490C5640,490,5520,490,5400,490C5280,490,5160,490,5040,490C4920,490,4800,490,4680,490C4560,490,4440,490,4320,490C4200,490,4080,490,3960,490C3840,490,3720,490,3600,490C3480,490,3360,490,3240,490C3120,490,3000,490,2880,490C2760,490,2640,490,2520,490C2400,490,2280,490,2160,490C2040,490,1920,490,1800,490C1680,490,1560,490,1440,490C1320,490,1200,490,1080,490C960,490,840,490,720,490C600,490,480,490,360,490C240,490,120,490,60,490L0,490Z"/></svg>