<?xml version="1.0" standalone="no"?>
<svg xmlns:xlink="http://www.w3.org/1999/xlink" id="wave" style="transform:rotate(0deg); transition: 0.3s" viewBox="0 0 1440 360" version="1.1" xmlns="http://www.w3.org/2000/svg"><defs><linearGradient id="sw-gradient-0" x1="0" x2="0" y1="1" y2="0"><stop stop-color="rgba(241, 242, 231, 1)" offset="0%"/><stop stop-color="rgba(241, 242, 231, 1)" offset="100%"/></linearGradient></defs><path style="transform:translate(0, 0px); opacity:1" fill="url(#sw-gradient-0)" d="M0,252L30,210C60,168,120,84,180,60C240,36,300,72,360,126C420,180,480,252,540,246C600,240,660,156,720,150C780,144,840,216,900,204C960,192,1020,96,1080,72C1140,48,1200,96,1260,138C1320,180,1380,216,1440,234C1500,252,1560,252,1620,210C1680,168,1740,84,1800,84C1860,84,1920,168,1980,192C2040,216,2100,180,2160,138C2220,96,2280,48,2340,30C2400,12,2460,24,2520,30C2580,36,2640,36,2700,66C2760,96,2820,156,2880,204C2940,252,3000,288,3060,270C3120,252,3180,180,3240,132C3300,84,3360,60,3420,54C3480,48,3540,60,3600,90C3660,120,3720,168,3780,204C3840,240,3900,264,3960,234C4020,204,4080,120,4140,108C4200,96,4260,156,4290,186L4320,216L4320,360L4290,360C4260,360,4200,360,4140,360C4080,360,4020,360,3960,360C3900,360,3840,360,3780,360C3720,360,3660,360,3600,360C3540,360,3480,360,3420,360C3360,360,3300,360,3240,360C3180,360,3120,360,3060,360C3000,360,2940,360,2880,360C2820,360,2760,360,2700,360C2640,360,2580,360,2520,360C2460,360,2400,360,2340,360C2280,360,2220,360,2160,360C2100,360,2040,360,1980,360C1920,360,1860,360,1800,360C1740,360,1680,360,1620,360C1560,360,1500,360,1440,360C1380,360,1320,360,1260,360C1200,360,1140,360,1080,360C1020,360,960,360,900,360C840,360,780,360,720,360C660,360,600,360,540,360C480,360,420,360,360,360C300,360,240,360,180,360C120,360,60,360,30,360L0,360Z"/></svg>